<mxfile compressed="false" host="app.diagrams.net" agent="Mozilla/5.0 (Macintosh; Intel Mac OS X 10_15_7) AppleWebKit/605.1.15 (KHTML, like Gecko) Version/18.2 Safari/605.1.15" version="26.0.5" pages="2">
  <diagram id="Network Topology" name="Physical topology">
    <mxGraphModel dx="1036" dy="772" grid="0" gridSize="2" guides="1" tooltips="1" connect="1" arrows="1" fold="1" page="1" pageScale="1" pageWidth="3300" pageHeight="4681" background="#4D5766" math="0" shadow="0">
      <root>
        <mxCell id="0" />
        <mxCell id="1" parent="0" />
        <mxCell id="WVs_OT1eYx0916ij7yWF-5" value="" style="whiteSpace=wrap;html=1;fillColor=none;dashed=1;strokeWidth=2;strokeColor=#82b366;gradientColor=none;" parent="1" vertex="1">
          <mxGeometry x="1179" y="729" width="531" height="351" as="geometry" />
        </mxCell>
        <mxCell id="WVs_OT1eYx0916ij7yWF-7" value="" style="whiteSpace=wrap;html=1;fillColor=none;dashed=1;strokeWidth=2;strokeColor=#82b366;gradientColor=none;" parent="1" vertex="1">
          <mxGeometry x="1999" y="734" width="261" height="341" as="geometry" />
        </mxCell>
        <mxCell id="WVs_OT1eYx0916ij7yWF-6" value="" style="whiteSpace=wrap;html=1;fillColor=none;dashed=1;strokeWidth=2;strokeColor=#82b366;gradientColor=none;" parent="1" vertex="1">
          <mxGeometry x="1734" y="390" width="226" height="437" as="geometry" />
        </mxCell>
        <mxCell id="WVs_OT1eYx0916ij7yWF-4" value="" style="whiteSpace=wrap;html=1;fillColor=none;dashed=1;strokeWidth=2;strokeColor=#82b366;gradientColor=none;" parent="1" vertex="1">
          <mxGeometry x="1316" y="377" width="912" height="309" as="geometry" />
        </mxCell>
        <object label="" src_label="e1-6" trgt_label="e1-31" source="spine1-dc1" target="leaf4-dc1" id="11e34e62b492b558eb1147c751843e40">
          <mxCell style="endArrow=none;jumpStyle=gap;exitY=1;exitX=0.5;fontFamily=Google Sans;fontSource=https%3A%2F%2Ffonts.googleapis.com%2Fcss%3Ffamily%3DGoogle%2BSans;entryX=0.5;entryY=0;entryDx=0;entryDy=0;strokeColor=#98A2AE;exitDx=0;exitDy=0;" parent="1" source="XFLzxQZfM_v2sXhXUsD--76" target="XFLzxQZfM_v2sXhXUsD--37" edge="1">
            <mxGeometry relative="1" as="geometry">
              <mxPoint x="1386.4999999999998" y="820.5" as="sourcePoint" />
              <mxPoint x="1639" y="973.5" as="targetPoint" />
            </mxGeometry>
          </mxCell>
        </object>
        <object label="" src_label="e1-3" trgt_label="e1-32" source="spine2-dc1" target="leaf1-dc1" id="be8a9e7dc0bc1c43fab98ff7dd33c904">
          <mxCell style="endArrow=none;jumpStyle=gap;entryY=0;exitY=1;entryX=0.5;exitX=0.5;fontFamily=Google Sans;fontSource=https%3A%2F%2Ffonts.googleapis.com%2Fcss%3Ffamily%3DGoogle%2BSans;entryDx=0;entryDy=0;strokeColor=#98A2AE;exitDx=0;exitDy=0;" parent="1" source="XFLzxQZfM_v2sXhXUsD--84" target="XFLzxQZfM_v2sXhXUsD--2" edge="1">
            <mxGeometry relative="1" as="geometry">
              <mxPoint x="1526.4999999999998" y="820.5" as="sourcePoint" />
              <mxPoint x="1226.5" y="975.04" as="targetPoint" />
            </mxGeometry>
          </mxCell>
        </object>
        <object label="" src_label="eth1" trgt_label="eth5" source="dcgw1-dc1" target="p1" id="0c637271b958e190790944e216d0e1cd">
          <mxCell style="endArrow=none;jumpStyle=gap;entryY=0.25;exitY=0;entryX=0;exitX=0.5;exitDx=0;exitDy=0;fontFamily=Google Sans;fontSource=https%3A%2F%2Ffonts.googleapis.com%2Fcss%3Ffamily%3DGoogle%2BSans;entryDx=0;entryDy=0;strokeColor=#98A2AE;rounded=0;curved=0;" parent="1" source="XFLzxQZfM_v2sXhXUsD--105" target="XFLzxQZfM_v2sXhXUsD--138" edge="1">
            <mxGeometry relative="1" as="geometry">
              <mxPoint x="1312.5" y="534.3199999999999" as="sourcePoint" />
              <mxPoint x="1682.5000000000002" y="410.5000000000002" as="targetPoint" />
              <Array as="points">
                <mxPoint x="1430" y="438" />
              </Array>
            </mxGeometry>
          </mxCell>
        </object>
        <object label="" src_label="eth1" trgt_label="eth6" source="dcgw2-dc1" target="p1" id="ba817ebb1d00d02cf8c0dcaba1a7e5be">
          <mxCell style="endArrow=none;jumpStyle=gap;entryY=0.75;exitY=0;entryX=0;exitX=0.5;exitDx=0;exitDy=0;fontFamily=Google Sans;fontSource=https%3A%2F%2Ffonts.googleapis.com%2Fcss%3Ffamily%3DGoogle%2BSans;entryDx=0;entryDy=0;strokeColor=#98A2AE;rounded=0;curved=0;" parent="1" source="XFLzxQZfM_v2sXhXUsD--118" target="XFLzxQZfM_v2sXhXUsD--138" edge="1">
            <mxGeometry relative="1" as="geometry">
              <mxPoint x="1452.5" y="534.3199999999999" as="sourcePoint" />
              <mxPoint x="1682.5000000000002" y="410.5000000000002" as="targetPoint" />
              <Array as="points">
                <mxPoint x="1549" y="475" />
              </Array>
            </mxGeometry>
          </mxCell>
        </object>
        <object label="" src_label="e1-31" trgt_label="eth3" source="spine1-dc1" target="dcgw1-dc1" id="8b5859603a6925d2c849d9743de38a1e">
          <mxCell style="endArrow=none;jumpStyle=gap;entryY=1;exitY=0;entryX=0.5;exitX=0.5;entryDx=0;entryDy=0;exitDx=0;exitDy=0;fontFamily=Google Sans;fontSource=https%3A%2F%2Ffonts.googleapis.com%2Fcss%3Ffamily%3DGoogle%2BSans;strokeColor=#98A2AE;" parent="1" target="XFLzxQZfM_v2sXhXUsD--105" edge="1">
            <mxGeometry relative="1" as="geometry">
              <mxPoint x="1386.4999999999998" y="745.5" as="sourcePoint" />
              <mxPoint x="1386.5" y="609.3199999999999" as="targetPoint" />
            </mxGeometry>
          </mxCell>
        </object>
        <object label="" src_label="e1-32" trgt_label="eth3" source="spine1-dc1" target="dcgw2-dc1" id="ae8b20479fd1f1029cdc591704fd1946">
          <mxCell style="endArrow=none;jumpStyle=gap;entryY=1;exitY=0;entryX=0.5;exitX=0.5;entryDx=0;entryDy=0;exitDx=0;exitDy=0;fontFamily=Google Sans;fontSource=https%3A%2F%2Ffonts.googleapis.com%2Fcss%3Ffamily%3DGoogle%2BSans;strokeColor=#98A2AE;" parent="1" target="XFLzxQZfM_v2sXhXUsD--118" edge="1">
            <mxGeometry relative="1" as="geometry">
              <mxPoint x="1386.4999999999998" y="745.5" as="sourcePoint" />
              <mxPoint x="1526.5" y="609.3199999999999" as="targetPoint" />
            </mxGeometry>
          </mxCell>
        </object>
        <object label="" src_label="e1-31" trgt_label="eth2" source="spine2-dc1" target="dcgw1-dc1" id="463040eab10b4bd470083bbec6d00ecb">
          <mxCell style="endArrow=none;jumpStyle=gap;entryY=1;exitY=0;entryX=0.5;exitX=0.5;entryDx=0;entryDy=0;exitDx=0;exitDy=0;fontFamily=Google Sans;fontSource=https%3A%2F%2Ffonts.googleapis.com%2Fcss%3Ffamily%3DGoogle%2BSans;strokeColor=#98A2AE;" parent="1" target="XFLzxQZfM_v2sXhXUsD--105" edge="1">
            <mxGeometry relative="1" as="geometry">
              <mxPoint x="1526.4999999999998" y="745.5" as="sourcePoint" />
              <mxPoint x="1386.5" y="609.3199999999999" as="targetPoint" />
            </mxGeometry>
          </mxCell>
        </object>
        <object label="" src_label="e1-32" trgt_label="eth2" source="spine2-dc1" target="dcgw2-dc1" id="3e7dd368fed04e2676a872ebfd4182c9">
          <mxCell style="endArrow=none;jumpStyle=gap;entryY=1;exitY=0;entryX=0.5;exitX=0.5;entryDx=0;entryDy=0;exitDx=0;exitDy=0;fontFamily=Google Sans;fontSource=https%3A%2F%2Ffonts.googleapis.com%2Fcss%3Ffamily%3DGoogle%2BSans;strokeColor=#98A2AE;" parent="1" target="XFLzxQZfM_v2sXhXUsD--118" edge="1">
            <mxGeometry relative="1" as="geometry">
              <mxPoint x="1526.4999999999998" y="745.5" as="sourcePoint" />
              <mxPoint x="1526.5" y="609.3199999999999" as="targetPoint" />
            </mxGeometry>
          </mxCell>
        </object>
        <object label="" src_label="e1-3" trgt_label="e1-31" source="spine1-dc1" target="leaf1-dc1" id="c7b0d9f3b5555ca65e23e2e205f105c9">
          <mxCell style="endArrow=none;jumpStyle=gap;entryY=0;exitY=1;entryX=0.5;exitX=0.5;fontFamily=Google Sans;fontSource=https%3A%2F%2Ffonts.googleapis.com%2Fcss%3Ffamily%3DGoogle%2BSans;entryDx=0;entryDy=0;strokeColor=#98A2AE;exitDx=0;exitDy=0;" parent="1" source="XFLzxQZfM_v2sXhXUsD--76" target="XFLzxQZfM_v2sXhXUsD--2" edge="1">
            <mxGeometry relative="1" as="geometry">
              <mxPoint x="1388.5" y="852.4999999999998" as="sourcePoint" />
              <mxPoint x="1226.5" y="975.04" as="targetPoint" />
            </mxGeometry>
          </mxCell>
        </object>
        <object label="" src_label="e1-6" trgt_label="e1-32" source="spine2-dc1" target="leaf4-dc1" id="620fc4d52e0297e8f771b124b08fa147">
          <mxCell style="endArrow=none;jumpStyle=gap;entryY=0;exitY=1;entryX=0.5;exitX=0.5;fontFamily=Google Sans;fontSource=https%3A%2F%2Ffonts.googleapis.com%2Fcss%3Ffamily%3DGoogle%2BSans;entryDx=0;entryDy=0;strokeColor=#98A2AE;exitDx=0;exitDy=0;" parent="1" source="XFLzxQZfM_v2sXhXUsD--84" target="XFLzxQZfM_v2sXhXUsD--37" edge="1">
            <mxGeometry relative="1" as="geometry">
              <mxPoint x="1526.4999999999998" y="820.5" as="sourcePoint" />
              <mxPoint x="1656.5" y="975.04" as="targetPoint" />
            </mxGeometry>
          </mxCell>
        </object>
        <object label="" src_label="eth1" trgt_label="e1-1" source="client1-dc1" target="leaf1-dc1" id="b430e8e39376845e516a7affae09f064">
          <mxCell style="endArrow=none;jumpStyle=gap;entryY=1;exitY=0;entryX=0.5;exitX=0.5;exitDx=0;exitDy=0;entryDx=0;entryDy=0;fontFamily=Google Sans;fontSource=https%3A%2F%2Ffonts.googleapis.com%2Fcss%3Ffamily%3DGoogle%2BSans;strokeColor=#FF0000;" parent="1" source="XFLzxQZfM_v2sXhXUsD--10" target="XFLzxQZfM_v2sXhXUsD--2" edge="1">
            <mxGeometry relative="1" as="geometry">
              <mxPoint x="1388.5" y="1057.5" as="sourcePoint" />
              <mxPoint x="1388.5" y="1050.04" as="targetPoint" />
            </mxGeometry>
          </mxCell>
        </object>
        <object label="" src_label="eth1" trgt_label="e1-1" source="client1-dc1" target="leaf1-dc1" id="XFLzxQZfM_v2sXhXUsD--47">
          <mxCell style="endArrow=none;jumpStyle=gap;entryY=1;exitY=0;entryX=0.5;exitX=0.5;exitDx=0;exitDy=0;entryDx=0;entryDy=0;fontFamily=Google Sans;fontSource=https%3A%2F%2Ffonts.googleapis.com%2Fcss%3Ffamily%3DGoogle%2BSans;strokeColor=#FF8000;" parent="1" source="XFLzxQZfM_v2sXhXUsD--43" target="XFLzxQZfM_v2sXhXUsD--37" edge="1">
            <mxGeometry relative="1" as="geometry">
              <mxPoint x="1527.5" y="1057.5" as="sourcePoint" />
              <mxPoint x="1528" y="1050.5" as="targetPoint" />
            </mxGeometry>
          </mxCell>
        </object>
        <mxCell id="XFLzxQZfM_v2sXhXUsD--55" value="" style="group;fontStyle=1" parent="1" vertex="1" connectable="0">
          <mxGeometry x="1325" y="975.04" width="101" height="75" as="geometry" />
        </mxCell>
        <mxCell id="XFLzxQZfM_v2sXhXUsD--8" value="" style="group;aspect=fixed;fontStyle=1" parent="XFLzxQZfM_v2sXhXUsD--55" vertex="1" connectable="0">
          <mxGeometry x="26" width="75" height="75" as="geometry" />
        </mxCell>
        <mxCell id="XFLzxQZfM_v2sXhXUsD--2" value="" style="whiteSpace=wrap;html=1;aspect=fixed;fillColor=#001135;strokeColor=none;connectable=1;allowArrows=1;fontStyle=1" parent="XFLzxQZfM_v2sXhXUsD--8" vertex="1">
          <mxGeometry width="75" height="75" as="geometry" />
        </mxCell>
        <mxCell id="XFLzxQZfM_v2sXhXUsD--3" value="" style="endArrow=open;html=1;edgeStyle=orthogonalEdgeStyle;rounded=0;endFill=0;startSize=6;endSize=6;strokeColor=#FFFFFF;strokeWidth=2;fontStyle=1" parent="XFLzxQZfM_v2sXhXUsD--8" edge="1">
          <mxGeometry width="50" height="50" relative="1" as="geometry">
            <mxPoint x="7.5" y="30" as="sourcePoint" />
            <mxPoint x="27.499999999999996" y="7.5" as="targetPoint" />
            <Array as="points">
              <mxPoint x="27.499999999999996" y="30" />
            </Array>
          </mxGeometry>
        </mxCell>
        <mxCell id="XFLzxQZfM_v2sXhXUsD--4" value="" style="endArrow=open;html=1;edgeStyle=orthogonalEdgeStyle;rounded=0;endFill=0;startSize=6;endSize=6;strokeColor=#FFFFFF;strokeWidth=2;fontStyle=1" parent="XFLzxQZfM_v2sXhXUsD--8" edge="1">
          <mxGeometry width="50" height="50" relative="1" as="geometry">
            <mxPoint x="27.499999999999996" y="67.5" as="sourcePoint" />
            <mxPoint x="7.5" y="47.49999999999999" as="targetPoint" />
            <Array as="points">
              <mxPoint x="27.499999999999996" y="47.49999999999999" />
            </Array>
          </mxGeometry>
        </mxCell>
        <mxCell id="XFLzxQZfM_v2sXhXUsD--5" value="" style="endArrow=open;html=1;edgeStyle=orthogonalEdgeStyle;rounded=0;endFill=0;startSize=6;endSize=6;strokeColor=#FFFFFF;strokeWidth=2;fontStyle=1" parent="XFLzxQZfM_v2sXhXUsD--8" edge="1">
          <mxGeometry width="50" height="50" relative="1" as="geometry">
            <mxPoint x="44.99999999999999" y="7.5" as="sourcePoint" />
            <mxPoint x="67.5" y="30" as="targetPoint" />
            <Array as="points">
              <mxPoint x="44.99999999999999" y="30" />
            </Array>
          </mxGeometry>
        </mxCell>
        <mxCell id="XFLzxQZfM_v2sXhXUsD--6" value="" style="endArrow=open;html=1;edgeStyle=orthogonalEdgeStyle;rounded=0;endFill=0;startSize=6;endSize=6;strokeColor=#FFFFFF;strokeWidth=2;fontStyle=1" parent="XFLzxQZfM_v2sXhXUsD--8" edge="1">
          <mxGeometry width="50" height="50" relative="1" as="geometry">
            <mxPoint x="67.5" y="47.49999999999999" as="sourcePoint" />
            <mxPoint x="44.99999999999999" y="67.5" as="targetPoint" />
            <Array as="points">
              <mxPoint x="44.99999999999999" y="47.49999999999999" />
            </Array>
          </mxGeometry>
        </mxCell>
        <mxCell id="XFLzxQZfM_v2sXhXUsD--54" value="leaf2-dc1" style="text;html=1;align=center;verticalAlign=middle;resizable=0;points=[];autosize=1;strokeColor=none;fillColor=none;fontFamily=Google Sans;fontSource=https%3A%2F%2Ffonts.googleapis.com%2Fcss%3Ffamily%3DGoogle%2BSans;fontColor=#FFFFFF;rotation=-90;fontStyle=1" parent="XFLzxQZfM_v2sXhXUsD--55" vertex="1">
          <mxGeometry x="-21" y="24.500000000000057" width="68" height="26" as="geometry" />
        </mxCell>
        <mxCell id="XFLzxQZfM_v2sXhXUsD--61" value="" style="group;fontStyle=1" parent="1" vertex="1" connectable="0">
          <mxGeometry x="1466.5" y="975.04" width="100.5" height="75" as="geometry" />
        </mxCell>
        <mxCell id="XFLzxQZfM_v2sXhXUsD--36" value="" style="group;aspect=fixed;fontStyle=1" parent="XFLzxQZfM_v2sXhXUsD--61" vertex="1" connectable="0">
          <mxGeometry x="23.5" width="75" height="75" as="geometry" />
        </mxCell>
        <mxCell id="XFLzxQZfM_v2sXhXUsD--37" value="" style="whiteSpace=wrap;html=1;aspect=fixed;fillColor=#001135;strokeColor=none;connectable=1;allowArrows=1;fontStyle=1" parent="XFLzxQZfM_v2sXhXUsD--36" vertex="1">
          <mxGeometry width="75" height="75" as="geometry" />
        </mxCell>
        <mxCell id="XFLzxQZfM_v2sXhXUsD--38" value="" style="endArrow=open;html=1;edgeStyle=orthogonalEdgeStyle;rounded=0;endFill=0;startSize=6;endSize=6;strokeColor=#FFFFFF;strokeWidth=2;fontStyle=1" parent="XFLzxQZfM_v2sXhXUsD--36" edge="1">
          <mxGeometry width="50" height="50" relative="1" as="geometry">
            <mxPoint x="7.5" y="30" as="sourcePoint" />
            <mxPoint x="27.499999999999996" y="7.5" as="targetPoint" />
            <Array as="points">
              <mxPoint x="27.499999999999996" y="30" />
            </Array>
          </mxGeometry>
        </mxCell>
        <mxCell id="XFLzxQZfM_v2sXhXUsD--39" value="" style="endArrow=open;html=1;edgeStyle=orthogonalEdgeStyle;rounded=0;endFill=0;startSize=6;endSize=6;strokeColor=#FFFFFF;strokeWidth=2;fontStyle=1" parent="XFLzxQZfM_v2sXhXUsD--36" edge="1">
          <mxGeometry width="50" height="50" relative="1" as="geometry">
            <mxPoint x="27.499999999999996" y="67.5" as="sourcePoint" />
            <mxPoint x="7.5" y="47.49999999999999" as="targetPoint" />
            <Array as="points">
              <mxPoint x="27.499999999999996" y="47.49999999999999" />
            </Array>
          </mxGeometry>
        </mxCell>
        <mxCell id="XFLzxQZfM_v2sXhXUsD--40" value="" style="endArrow=open;html=1;edgeStyle=orthogonalEdgeStyle;rounded=0;endFill=0;startSize=6;endSize=6;strokeColor=#FFFFFF;strokeWidth=2;fontStyle=1" parent="XFLzxQZfM_v2sXhXUsD--36" edge="1">
          <mxGeometry width="50" height="50" relative="1" as="geometry">
            <mxPoint x="44.99999999999999" y="7.5" as="sourcePoint" />
            <mxPoint x="67.5" y="30" as="targetPoint" />
            <Array as="points">
              <mxPoint x="44.99999999999999" y="30" />
            </Array>
          </mxGeometry>
        </mxCell>
        <mxCell id="XFLzxQZfM_v2sXhXUsD--41" value="" style="endArrow=open;html=1;edgeStyle=orthogonalEdgeStyle;rounded=0;endFill=0;startSize=6;endSize=6;strokeColor=#FFFFFF;strokeWidth=2;fontStyle=1" parent="XFLzxQZfM_v2sXhXUsD--36" edge="1">
          <mxGeometry width="50" height="50" relative="1" as="geometry">
            <mxPoint x="67.5" y="47.49999999999999" as="sourcePoint" />
            <mxPoint x="44.99999999999999" y="67.5" as="targetPoint" />
            <Array as="points">
              <mxPoint x="44.99999999999999" y="47.49999999999999" />
            </Array>
          </mxGeometry>
        </mxCell>
        <mxCell id="XFLzxQZfM_v2sXhXUsD--60" value="leaf3-dc1" style="text;html=1;align=center;verticalAlign=middle;resizable=0;points=[];autosize=1;strokeColor=none;fillColor=none;fontFamily=Google Sans;fontSource=https%3A%2F%2Ffonts.googleapis.com%2Fcss%3Ffamily%3DGoogle%2BSans;fontColor=#FFFFFF;rotation=-90;fontStyle=1" parent="XFLzxQZfM_v2sXhXUsD--61" vertex="1">
          <mxGeometry x="-20.5" y="24.5" width="68" height="26" as="geometry" />
        </mxCell>
        <mxCell id="XFLzxQZfM_v2sXhXUsD--62" value="" style="group" parent="1" vertex="1" connectable="0">
          <mxGeometry x="1350.755" y="1114.5" width="76.245" height="101" as="geometry" />
        </mxCell>
        <mxCell id="XFLzxQZfM_v2sXhXUsD--9" value="" style="group;aspect=fixed;" parent="XFLzxQZfM_v2sXhXUsD--62" vertex="1" connectable="0">
          <mxGeometry width="75.49000000000001" height="75" as="geometry" />
        </mxCell>
        <mxCell id="XFLzxQZfM_v2sXhXUsD--10" value="" style="whiteSpace=wrap;html=1;aspect=fixed;fillColor=#001135;strokeColor=none;connectable=1;allowArrows=1;" parent="XFLzxQZfM_v2sXhXUsD--9" vertex="1">
          <mxGeometry x="0.24500000000000455" width="75" height="75" as="geometry" />
        </mxCell>
        <mxCell id="XFLzxQZfM_v2sXhXUsD--17" value="" style="endArrow=none;html=1;rounded=0;entryX=0.907;entryY=0.793;entryDx=0;entryDy=0;entryPerimeter=0;exitX=0.08;exitY=0.793;exitDx=0;exitDy=0;exitPerimeter=0;strokeColor=#FFFFFF;strokeWidth=2;" parent="XFLzxQZfM_v2sXhXUsD--9" edge="1">
          <mxGeometry width="50" height="50" relative="1" as="geometry">
            <mxPoint x="6.490000000000009" y="60.23500000000013" as="sourcePoint" />
            <mxPoint x="68.5150000000001" y="60.23500000000013" as="targetPoint" />
          </mxGeometry>
        </mxCell>
        <mxCell id="XFLzxQZfM_v2sXhXUsD--15" value="" style="rounded=1;whiteSpace=wrap;html=1;arcSize=14;fillColor=none;strokeColor=#FFFFFF;strokeWidth=2;" parent="XFLzxQZfM_v2sXhXUsD--9" vertex="1">
          <mxGeometry x="12.245000000000005" y="15.760000000000048" width="51" height="38.46" as="geometry" />
        </mxCell>
        <mxCell id="XFLzxQZfM_v2sXhXUsD--16" value="" style="ellipse;whiteSpace=wrap;html=1;aspect=fixed;strokeColor=none;" parent="XFLzxQZfM_v2sXhXUsD--9" vertex="1">
          <mxGeometry x="36.245000000000005" y="21.220000000000027" width="3" height="3" as="geometry" />
        </mxCell>
        <mxCell id="XFLzxQZfM_v2sXhXUsD--52" value="client2-dc1" style="text;html=1;align=center;verticalAlign=middle;resizable=0;points=[];autosize=1;strokeColor=none;fillColor=none;fontFamily=Google Sans;fontSource=https%3A%2F%2Ffonts.googleapis.com%2Fcss%3Ffamily%3DGoogle%2BSans;fontColor=#FFFFFF;fontStyle=1" parent="XFLzxQZfM_v2sXhXUsD--62" vertex="1">
          <mxGeometry x="-0.7549999999999955" y="75" width="77" height="26" as="geometry" />
        </mxCell>
        <mxCell id="XFLzxQZfM_v2sXhXUsD--63" value="" style="group" parent="1" vertex="1" connectable="0">
          <mxGeometry x="1489" y="1114.5" width="78" height="101" as="geometry" />
        </mxCell>
        <mxCell id="XFLzxQZfM_v2sXhXUsD--42" value="" style="group;aspect=fixed;" parent="XFLzxQZfM_v2sXhXUsD--63" vertex="1" connectable="0">
          <mxGeometry x="0.7549999999999955" width="75.49000000000001" height="75" as="geometry" />
        </mxCell>
        <mxCell id="XFLzxQZfM_v2sXhXUsD--43" value="" style="whiteSpace=wrap;html=1;aspect=fixed;fillColor=#001135;strokeColor=none;connectable=1;allowArrows=1;" parent="XFLzxQZfM_v2sXhXUsD--42" vertex="1">
          <mxGeometry x="0.24500000000000455" width="75" height="75" as="geometry" />
        </mxCell>
        <mxCell id="XFLzxQZfM_v2sXhXUsD--44" value="" style="endArrow=none;html=1;rounded=0;entryX=0.907;entryY=0.793;entryDx=0;entryDy=0;entryPerimeter=0;exitX=0.08;exitY=0.793;exitDx=0;exitDy=0;exitPerimeter=0;strokeColor=#FFFFFF;strokeWidth=2;" parent="XFLzxQZfM_v2sXhXUsD--42" edge="1">
          <mxGeometry width="50" height="50" relative="1" as="geometry">
            <mxPoint x="6.490000000000009" y="60.23500000000013" as="sourcePoint" />
            <mxPoint x="68.5150000000001" y="60.23500000000013" as="targetPoint" />
          </mxGeometry>
        </mxCell>
        <mxCell id="XFLzxQZfM_v2sXhXUsD--45" value="" style="rounded=1;whiteSpace=wrap;html=1;arcSize=14;fillColor=none;strokeColor=#FFFFFF;strokeWidth=2;" parent="XFLzxQZfM_v2sXhXUsD--42" vertex="1">
          <mxGeometry x="12.245000000000005" y="15.760000000000048" width="51" height="38.46" as="geometry" />
        </mxCell>
        <mxCell id="XFLzxQZfM_v2sXhXUsD--46" value="" style="ellipse;whiteSpace=wrap;html=1;aspect=fixed;strokeColor=none;" parent="XFLzxQZfM_v2sXhXUsD--42" vertex="1">
          <mxGeometry x="36.245000000000005" y="21.220000000000027" width="3" height="3" as="geometry" />
        </mxCell>
        <mxCell id="XFLzxQZfM_v2sXhXUsD--53" value="client3-dc1" style="text;html=1;align=center;verticalAlign=middle;resizable=0;points=[];autosize=1;strokeColor=none;fillColor=none;fontFamily=Google Sans;fontSource=https%3A%2F%2Ffonts.googleapis.com%2Fcss%3Ffamily%3DGoogle%2BSans;fontColor=#FFFFFF;fontStyle=1" parent="XFLzxQZfM_v2sXhXUsD--63" vertex="1">
          <mxGeometry y="75" width="78" height="26" as="geometry" />
        </mxCell>
        <mxCell id="XFLzxQZfM_v2sXhXUsD--74" value="" style="group;fontStyle=1" parent="1" vertex="1" connectable="0">
          <mxGeometry x="1326" y="745.5" width="101" height="75" as="geometry" />
        </mxCell>
        <mxCell id="XFLzxQZfM_v2sXhXUsD--75" value="" style="group;aspect=fixed;fontStyle=1" parent="XFLzxQZfM_v2sXhXUsD--74" vertex="1" connectable="0">
          <mxGeometry x="26" width="75" height="75" as="geometry" />
        </mxCell>
        <mxCell id="XFLzxQZfM_v2sXhXUsD--76" value="" style="whiteSpace=wrap;html=1;aspect=fixed;fillColor=#001135;strokeColor=none;connectable=1;allowArrows=1;fontStyle=1" parent="XFLzxQZfM_v2sXhXUsD--75" vertex="1">
          <mxGeometry width="75" height="75" as="geometry" />
        </mxCell>
        <mxCell id="XFLzxQZfM_v2sXhXUsD--77" value="" style="endArrow=open;html=1;edgeStyle=orthogonalEdgeStyle;rounded=0;endFill=0;startSize=6;endSize=6;strokeColor=#FFFFFF;strokeWidth=2;fontStyle=1" parent="XFLzxQZfM_v2sXhXUsD--75" edge="1">
          <mxGeometry width="50" height="50" relative="1" as="geometry">
            <mxPoint x="7.5" y="30" as="sourcePoint" />
            <mxPoint x="27.499999999999996" y="7.5" as="targetPoint" />
            <Array as="points">
              <mxPoint x="27.499999999999996" y="30" />
            </Array>
          </mxGeometry>
        </mxCell>
        <mxCell id="XFLzxQZfM_v2sXhXUsD--78" value="" style="endArrow=open;html=1;edgeStyle=orthogonalEdgeStyle;rounded=0;endFill=0;startSize=6;endSize=6;strokeColor=#FFFFFF;strokeWidth=2;fontStyle=1" parent="XFLzxQZfM_v2sXhXUsD--75" edge="1">
          <mxGeometry width="50" height="50" relative="1" as="geometry">
            <mxPoint x="27.499999999999996" y="67.5" as="sourcePoint" />
            <mxPoint x="7.5" y="47.49999999999999" as="targetPoint" />
            <Array as="points">
              <mxPoint x="27.499999999999996" y="47.49999999999999" />
            </Array>
          </mxGeometry>
        </mxCell>
        <mxCell id="XFLzxQZfM_v2sXhXUsD--79" value="" style="endArrow=open;html=1;edgeStyle=orthogonalEdgeStyle;rounded=0;endFill=0;startSize=6;endSize=6;strokeColor=#FFFFFF;strokeWidth=2;fontStyle=1" parent="XFLzxQZfM_v2sXhXUsD--75" edge="1">
          <mxGeometry width="50" height="50" relative="1" as="geometry">
            <mxPoint x="44.99999999999999" y="7.5" as="sourcePoint" />
            <mxPoint x="67.5" y="30" as="targetPoint" />
            <Array as="points">
              <mxPoint x="44.99999999999999" y="30" />
            </Array>
          </mxGeometry>
        </mxCell>
        <mxCell id="XFLzxQZfM_v2sXhXUsD--80" value="" style="endArrow=open;html=1;edgeStyle=orthogonalEdgeStyle;rounded=0;endFill=0;startSize=6;endSize=6;strokeColor=#FFFFFF;strokeWidth=2;fontStyle=1" parent="XFLzxQZfM_v2sXhXUsD--75" edge="1">
          <mxGeometry width="50" height="50" relative="1" as="geometry">
            <mxPoint x="67.5" y="47.49999999999999" as="sourcePoint" />
            <mxPoint x="44.99999999999999" y="67.5" as="targetPoint" />
            <Array as="points">
              <mxPoint x="44.99999999999999" y="47.49999999999999" />
            </Array>
          </mxGeometry>
        </mxCell>
        <mxCell id="XFLzxQZfM_v2sXhXUsD--81" value="spine1-dc1" style="text;html=1;align=center;verticalAlign=middle;resizable=0;points=[];autosize=1;strokeColor=none;fillColor=none;fontFamily=Google Sans;fontSource=https%3A%2F%2Ffonts.googleapis.com%2Fcss%3Ffamily%3DGoogle%2BSans;fontColor=#FFFFFF;rotation=-90;fontStyle=1" parent="XFLzxQZfM_v2sXhXUsD--74" vertex="1">
          <mxGeometry x="-24" y="24.500000000000057" width="75" height="26" as="geometry" />
        </mxCell>
        <mxCell id="XFLzxQZfM_v2sXhXUsD--82" value="" style="group;fontStyle=1" parent="1" vertex="1" connectable="0">
          <mxGeometry x="1463" y="745.5" width="101" height="75" as="geometry" />
        </mxCell>
        <mxCell id="XFLzxQZfM_v2sXhXUsD--83" value="" style="group;aspect=fixed;fontStyle=1" parent="XFLzxQZfM_v2sXhXUsD--82" vertex="1" connectable="0">
          <mxGeometry x="26" width="75" height="75" as="geometry" />
        </mxCell>
        <mxCell id="XFLzxQZfM_v2sXhXUsD--84" value="" style="whiteSpace=wrap;html=1;aspect=fixed;fillColor=#001135;strokeColor=none;connectable=1;allowArrows=1;fontStyle=1" parent="XFLzxQZfM_v2sXhXUsD--83" vertex="1">
          <mxGeometry width="75" height="75" as="geometry" />
        </mxCell>
        <mxCell id="XFLzxQZfM_v2sXhXUsD--85" value="" style="endArrow=open;html=1;edgeStyle=orthogonalEdgeStyle;rounded=0;endFill=0;startSize=6;endSize=6;strokeColor=#FFFFFF;strokeWidth=2;fontStyle=1" parent="XFLzxQZfM_v2sXhXUsD--83" edge="1">
          <mxGeometry width="50" height="50" relative="1" as="geometry">
            <mxPoint x="7.5" y="30" as="sourcePoint" />
            <mxPoint x="27.499999999999996" y="7.5" as="targetPoint" />
            <Array as="points">
              <mxPoint x="27.499999999999996" y="30" />
            </Array>
          </mxGeometry>
        </mxCell>
        <mxCell id="XFLzxQZfM_v2sXhXUsD--86" value="" style="endArrow=open;html=1;edgeStyle=orthogonalEdgeStyle;rounded=0;endFill=0;startSize=6;endSize=6;strokeColor=#FFFFFF;strokeWidth=2;fontStyle=1" parent="XFLzxQZfM_v2sXhXUsD--83" edge="1">
          <mxGeometry width="50" height="50" relative="1" as="geometry">
            <mxPoint x="27.499999999999996" y="67.5" as="sourcePoint" />
            <mxPoint x="7.5" y="47.49999999999999" as="targetPoint" />
            <Array as="points">
              <mxPoint x="27.499999999999996" y="47.49999999999999" />
            </Array>
          </mxGeometry>
        </mxCell>
        <mxCell id="XFLzxQZfM_v2sXhXUsD--87" value="" style="endArrow=open;html=1;edgeStyle=orthogonalEdgeStyle;rounded=0;endFill=0;startSize=6;endSize=6;strokeColor=#FFFFFF;strokeWidth=2;fontStyle=1" parent="XFLzxQZfM_v2sXhXUsD--83" edge="1">
          <mxGeometry width="50" height="50" relative="1" as="geometry">
            <mxPoint x="44.99999999999999" y="7.5" as="sourcePoint" />
            <mxPoint x="67.5" y="30" as="targetPoint" />
            <Array as="points">
              <mxPoint x="44.99999999999999" y="30" />
            </Array>
          </mxGeometry>
        </mxCell>
        <mxCell id="XFLzxQZfM_v2sXhXUsD--88" value="" style="endArrow=open;html=1;edgeStyle=orthogonalEdgeStyle;rounded=0;endFill=0;startSize=6;endSize=6;strokeColor=#FFFFFF;strokeWidth=2;fontStyle=1" parent="XFLzxQZfM_v2sXhXUsD--83" edge="1">
          <mxGeometry width="50" height="50" relative="1" as="geometry">
            <mxPoint x="67.5" y="47.49999999999999" as="sourcePoint" />
            <mxPoint x="44.99999999999999" y="67.5" as="targetPoint" />
            <Array as="points">
              <mxPoint x="44.99999999999999" y="47.49999999999999" />
            </Array>
          </mxGeometry>
        </mxCell>
        <mxCell id="XFLzxQZfM_v2sXhXUsD--89" value="spine2-dc1" style="text;html=1;align=center;verticalAlign=middle;resizable=0;points=[];autosize=1;strokeColor=none;fillColor=none;fontFamily=Google Sans;fontSource=https%3A%2F%2Ffonts.googleapis.com%2Fcss%3Ffamily%3DGoogle%2BSans;fontColor=#FFFFFF;rotation=-90;fontStyle=1" parent="XFLzxQZfM_v2sXhXUsD--82" vertex="1">
          <mxGeometry x="-25" y="24.500000000000057" width="77" height="26" as="geometry" />
        </mxCell>
        <mxCell id="XFLzxQZfM_v2sXhXUsD--126" value="" style="group;fontStyle=1" parent="1" vertex="1" connectable="0">
          <mxGeometry x="1462" y="532" width="101" height="78" as="geometry" />
        </mxCell>
        <mxCell id="XFLzxQZfM_v2sXhXUsD--117" value="" style="group;fontStyle=1" parent="XFLzxQZfM_v2sXhXUsD--126" vertex="1" connectable="0">
          <mxGeometry x="26" y="1.4999999999999716" width="75" height="75.00000000000006" as="geometry" />
        </mxCell>
        <mxCell id="XFLzxQZfM_v2sXhXUsD--118" value="" style="whiteSpace=wrap;html=1;aspect=fixed;fillColor=#124191;strokeColor=none;connectable=1;allowArrows=1;fontStyle=1" parent="XFLzxQZfM_v2sXhXUsD--117" vertex="1">
          <mxGeometry width="75" height="75" as="geometry" />
        </mxCell>
        <mxCell id="XFLzxQZfM_v2sXhXUsD--119" value="" style="endArrow=open;html=1;rounded=0;endFill=0;startSize=6;endSize=6;strokeColor=#FFFFFF;strokeWidth=2;entryX=0.56;entryY=0.441;entryDx=0;entryDy=0;entryPerimeter=0;exitX=0.84;exitY=0.161;exitDx=0;exitDy=0;exitPerimeter=0;fontStyle=1" parent="XFLzxQZfM_v2sXhXUsD--117" source="XFLzxQZfM_v2sXhXUsD--118" target="XFLzxQZfM_v2sXhXUsD--118" edge="1">
          <mxGeometry width="50" height="50" relative="1" as="geometry">
            <mxPoint x="63" y="12.069999999999993" as="sourcePoint" />
            <mxPoint x="43" y="32.06999999999999" as="targetPoint" />
          </mxGeometry>
        </mxCell>
        <mxCell id="XFLzxQZfM_v2sXhXUsD--120" value="" style="endArrow=open;html=1;rounded=0;endFill=0;startSize=6;endSize=6;strokeColor=#FFFFFF;strokeWidth=2;entryX=0.44;entryY=0.561;entryDx=0;entryDy=0;entryPerimeter=0;exitX=0.16;exitY=0.841;exitDx=0;exitDy=0;exitPerimeter=0;fontStyle=1" parent="XFLzxQZfM_v2sXhXUsD--117" edge="1">
          <mxGeometry width="50" height="50" relative="1" as="geometry">
            <mxPoint x="11.999999999999943" y="63.07500000000033" as="sourcePoint" />
            <mxPoint x="33" y="42.0750000000001" as="targetPoint" />
          </mxGeometry>
        </mxCell>
        <mxCell id="XFLzxQZfM_v2sXhXUsD--121" value="" style="endArrow=open;html=1;rounded=0;endFill=0;startSize=6;endSize=6;strokeColor=#FFFFFF;strokeWidth=2;entryX=0.173;entryY=0.174;entryDx=0;entryDy=0;entryPerimeter=0;exitX=0.44;exitY=0.441;exitDx=0;exitDy=0;exitPerimeter=0;fontStyle=1" parent="XFLzxQZfM_v2sXhXUsD--117" source="XFLzxQZfM_v2sXhXUsD--118" target="XFLzxQZfM_v2sXhXUsD--118" edge="1">
          <mxGeometry width="50" height="50" relative="1" as="geometry">
            <mxPoint x="65" y="14.069999999999993" as="sourcePoint" />
            <mxPoint x="44" y="35.06999999999999" as="targetPoint" />
          </mxGeometry>
        </mxCell>
        <mxCell id="XFLzxQZfM_v2sXhXUsD--122" value="" style="endArrow=open;html=1;rounded=0;endFill=0;startSize=6;endSize=6;strokeColor=#FFFFFF;strokeWidth=2;entryX=0.827;entryY=0.828;entryDx=0;entryDy=0;entryPerimeter=0;fontStyle=1" parent="XFLzxQZfM_v2sXhXUsD--117" target="XFLzxQZfM_v2sXhXUsD--118" edge="1">
          <mxGeometry width="50" height="50" relative="1" as="geometry">
            <mxPoint x="42" y="42.06999999999999" as="sourcePoint" />
            <mxPoint x="15" y="15.069999999999993" as="targetPoint" />
          </mxGeometry>
        </mxCell>
        <mxCell id="XFLzxQZfM_v2sXhXUsD--124" value="dc1-pe2" style="text;html=1;align=center;verticalAlign=middle;resizable=0;points=[];autosize=1;strokeColor=none;fillColor=none;fontFamily=Google Sans;fontSource=https%3A%2F%2Ffonts.googleapis.com%2Fcss%3Ffamily%3DGoogle%2BSans;fontColor=#FFFFFF;rotation=-90;fontStyle=1" parent="XFLzxQZfM_v2sXhXUsD--126" vertex="1">
          <mxGeometry x="-17" y="26" width="62" height="26" as="geometry" />
        </mxCell>
        <object label="" src_label="eth1" trgt_label="eth5" source="dcgw1-dc1" target="p1" id="XFLzxQZfM_v2sXhXUsD--149">
          <mxCell style="endArrow=none;jumpStyle=gap;entryY=0.75;exitY=0;entryX=1;exitX=0.5;exitDx=0;exitDy=0;fontFamily=Google Sans;fontSource=https%3A%2F%2Ffonts.googleapis.com%2Fcss%3Ffamily%3DGoogle%2BSans;entryDx=0;entryDy=0;strokeColor=#98A2AE;rounded=0;curved=0;" parent="1" source="XFLzxQZfM_v2sXhXUsD--251" target="XFLzxQZfM_v2sXhXUsD--138" edge="1">
            <mxGeometry relative="1" as="geometry">
              <mxPoint x="2015.5" y="534.3199999999999" as="sourcePoint" />
              <mxPoint x="2357" y="456.5" as="targetPoint" />
              <Array as="points">
                <mxPoint x="1840" y="475" />
              </Array>
            </mxGeometry>
          </mxCell>
        </object>
        <object label="" src_label="eth1" trgt_label="eth6" source="dcgw2-dc1" target="p1" id="XFLzxQZfM_v2sXhXUsD--150">
          <mxCell style="endArrow=none;jumpStyle=gap;exitY=0;exitX=0.5;exitDx=0;exitDy=0;fontFamily=Google Sans;fontSource=https%3A%2F%2Ffonts.googleapis.com%2Fcss%3Ffamily%3DGoogle%2BSans;strokeColor=#98A2AE;entryX=1;entryY=0.25;entryDx=0;entryDy=0;rounded=0;curved=0;" parent="1" source="XFLzxQZfM_v2sXhXUsD--259" target="XFLzxQZfM_v2sXhXUsD--138" edge="1">
            <mxGeometry relative="1" as="geometry">
              <mxPoint x="2155.5" y="534.3199999999999" as="sourcePoint" />
              <mxPoint x="1817" y="455.5" as="targetPoint" />
              <Array as="points">
                <mxPoint x="2098" y="438" />
              </Array>
            </mxGeometry>
          </mxCell>
        </object>
        <object label="" src_label="e1-31" trgt_label="eth3" source="spine1-dc1" target="dcgw1-dc1" id="XFLzxQZfM_v2sXhXUsD--151">
          <mxCell style="endArrow=none;jumpStyle=gap;exitY=0.5;exitX=1;exitDx=0;exitDy=0;fontFamily=Google Sans;fontSource=https%3A%2F%2Ffonts.googleapis.com%2Fcss%3Ffamily%3DGoogle%2BSans;strokeColor=#FF0000;entryX=0;entryY=0.5;entryDx=0;entryDy=0;" parent="1" source="TSjxLKtJQKfFz80jZX6N-45" target="XFLzxQZfM_v2sXhXUsD--105" edge="1">
            <mxGeometry relative="1" as="geometry">
              <mxPoint x="1838.4999999999998" y="765.5" as="sourcePoint" />
              <mxPoint x="1838.5" y="629.3199999999999" as="targetPoint" />
            </mxGeometry>
          </mxCell>
        </object>
        <object label="" src_label="e1-32" trgt_label="eth2" source="spine2-dc1" target="dcgw2-dc1" id="XFLzxQZfM_v2sXhXUsD--154">
          <mxCell style="endArrow=none;jumpStyle=gap;entryY=1;exitY=0;entryX=0.5;exitX=0.5;entryDx=0;entryDy=0;exitDx=0;exitDy=0;fontFamily=Google Sans;fontSource=https%3A%2F%2Ffonts.googleapis.com%2Fcss%3Ffamily%3DGoogle%2BSans;strokeColor=#98A2AE;" parent="1" target="XFLzxQZfM_v2sXhXUsD--259" edge="1">
            <mxGeometry relative="1" as="geometry">
              <mxPoint x="2133.74" y="745.5" as="sourcePoint" />
              <mxPoint x="2133.74" y="609.3199999999999" as="targetPoint" />
            </mxGeometry>
          </mxCell>
        </object>
        <object label="" src_label="e1-5" trgt_label="e1-32" source="spine2-dc1" target="leaf3-dc1" id="XFLzxQZfM_v2sXhXUsD--159">
          <mxCell style="endArrow=none;jumpStyle=gap;entryY=0;exitY=1;entryX=0.5;exitX=0.5;fontFamily=Google Sans;fontSource=https%3A%2F%2Ffonts.googleapis.com%2Fcss%3Ffamily%3DGoogle%2BSans;strokeColor=#98A2AE;entryDx=0;entryDy=0;" parent="1" target="XFLzxQZfM_v2sXhXUsD--181" edge="1">
            <mxGeometry relative="1" as="geometry">
              <mxPoint x="2133.74" y="820.5" as="sourcePoint" />
              <mxPoint x="2123.74" y="975.04" as="targetPoint" />
            </mxGeometry>
          </mxCell>
        </object>
        <object label="" src_label="e1-6" trgt_label="e1-32" source="spine2-dc1" target="leaf4-dc1" id="XFLzxQZfM_v2sXhXUsD--160">
          <mxCell style="endArrow=none;jumpStyle=gap;entryY=0;exitY=1;entryX=0.5;exitX=0.5;fontFamily=Google Sans;fontSource=https%3A%2F%2Ffonts.googleapis.com%2Fcss%3Ffamily%3DGoogle%2BSans;entryDx=0;entryDy=0;strokeColor=#98A2AE;exitDx=0;exitDy=0;" parent="1" source="XFLzxQZfM_v2sXhXUsD--235" target="XFLzxQZfM_v2sXhXUsD--197" edge="1">
            <mxGeometry relative="1" as="geometry">
              <mxPoint x="2133.74" y="820.5" as="sourcePoint" />
              <mxPoint x="2263.74" y="975.04" as="targetPoint" />
            </mxGeometry>
          </mxCell>
        </object>
        <object label="" src_label="eth1" trgt_label="e1-1" source="client1-dc1" target="leaf1-dc1" id="XFLzxQZfM_v2sXhXUsD--166">
          <mxCell style="endArrow=none;jumpStyle=gap;entryY=1;exitY=0;entryX=0.5;exitX=0.5;exitDx=0;exitDy=0;entryDx=0;entryDy=0;fontFamily=Google Sans;fontSource=https%3A%2F%2Ffonts.googleapis.com%2Fcss%3Ffamily%3DGoogle%2BSans;strokeColor=#FF0000;" parent="1" source="XFLzxQZfM_v2sXhXUsD--212" target="XFLzxQZfM_v2sXhXUsD--197" edge="1">
            <mxGeometry relative="1" as="geometry">
              <mxPoint x="2209.74" y="1057.5" as="sourcePoint" />
              <mxPoint x="2210.24" y="1050.5" as="targetPoint" />
            </mxGeometry>
          </mxCell>
        </object>
        <mxCell id="XFLzxQZfM_v2sXhXUsD--179" value="" style="group;fontStyle=1" parent="1" vertex="1" connectable="0">
          <mxGeometry x="2007.2399999999998" y="975.04" width="101" height="75" as="geometry" />
        </mxCell>
        <mxCell id="XFLzxQZfM_v2sXhXUsD--180" value="" style="group;aspect=fixed;fontStyle=1" parent="XFLzxQZfM_v2sXhXUsD--179" vertex="1" connectable="0">
          <mxGeometry x="26" width="75" height="75" as="geometry" />
        </mxCell>
        <mxCell id="XFLzxQZfM_v2sXhXUsD--181" value="" style="whiteSpace=wrap;html=1;aspect=fixed;fillColor=#001135;strokeColor=none;connectable=1;allowArrows=1;fontStyle=1" parent="XFLzxQZfM_v2sXhXUsD--180" vertex="1">
          <mxGeometry width="75" height="75" as="geometry" />
        </mxCell>
        <mxCell id="XFLzxQZfM_v2sXhXUsD--182" value="" style="endArrow=open;html=1;edgeStyle=orthogonalEdgeStyle;rounded=0;endFill=0;startSize=6;endSize=6;strokeColor=#FFFFFF;strokeWidth=2;fontStyle=1" parent="XFLzxQZfM_v2sXhXUsD--180" edge="1">
          <mxGeometry width="50" height="50" relative="1" as="geometry">
            <mxPoint x="7.5" y="30" as="sourcePoint" />
            <mxPoint x="27.499999999999996" y="7.5" as="targetPoint" />
            <Array as="points">
              <mxPoint x="27.499999999999996" y="30" />
            </Array>
          </mxGeometry>
        </mxCell>
        <mxCell id="XFLzxQZfM_v2sXhXUsD--183" value="" style="endArrow=open;html=1;edgeStyle=orthogonalEdgeStyle;rounded=0;endFill=0;startSize=6;endSize=6;strokeColor=#FFFFFF;strokeWidth=2;fontStyle=1" parent="XFLzxQZfM_v2sXhXUsD--180" edge="1">
          <mxGeometry width="50" height="50" relative="1" as="geometry">
            <mxPoint x="27.499999999999996" y="67.5" as="sourcePoint" />
            <mxPoint x="7.5" y="47.49999999999999" as="targetPoint" />
            <Array as="points">
              <mxPoint x="27.499999999999996" y="47.49999999999999" />
            </Array>
          </mxGeometry>
        </mxCell>
        <mxCell id="XFLzxQZfM_v2sXhXUsD--184" value="" style="endArrow=open;html=1;edgeStyle=orthogonalEdgeStyle;rounded=0;endFill=0;startSize=6;endSize=6;strokeColor=#FFFFFF;strokeWidth=2;fontStyle=1" parent="XFLzxQZfM_v2sXhXUsD--180" edge="1">
          <mxGeometry width="50" height="50" relative="1" as="geometry">
            <mxPoint x="44.99999999999999" y="7.5" as="sourcePoint" />
            <mxPoint x="67.5" y="30" as="targetPoint" />
            <Array as="points">
              <mxPoint x="44.99999999999999" y="30" />
            </Array>
          </mxGeometry>
        </mxCell>
        <mxCell id="XFLzxQZfM_v2sXhXUsD--185" value="" style="endArrow=open;html=1;edgeStyle=orthogonalEdgeStyle;rounded=0;endFill=0;startSize=6;endSize=6;strokeColor=#FFFFFF;strokeWidth=2;fontStyle=1" parent="XFLzxQZfM_v2sXhXUsD--180" edge="1">
          <mxGeometry width="50" height="50" relative="1" as="geometry">
            <mxPoint x="67.5" y="47.49999999999999" as="sourcePoint" />
            <mxPoint x="44.99999999999999" y="67.5" as="targetPoint" />
            <Array as="points">
              <mxPoint x="44.99999999999999" y="47.49999999999999" />
            </Array>
          </mxGeometry>
        </mxCell>
        <mxCell id="XFLzxQZfM_v2sXhXUsD--186" value="leaf1-dc2" style="text;html=1;align=center;verticalAlign=middle;resizable=0;points=[];autosize=1;strokeColor=none;fillColor=none;fontFamily=Google Sans;fontSource=https%3A%2F%2Ffonts.googleapis.com%2Fcss%3Ffamily%3DGoogle%2BSans;fontColor=#FFFFFF;rotation=-90;fontStyle=1" parent="XFLzxQZfM_v2sXhXUsD--179" vertex="1">
          <mxGeometry x="-21" y="24.5" width="68" height="26" as="geometry" />
        </mxCell>
        <mxCell id="XFLzxQZfM_v2sXhXUsD--195" value="" style="group;fontStyle=1" parent="1" vertex="1" connectable="0">
          <mxGeometry x="2146.74" y="975.04" width="100.5" height="75" as="geometry" />
        </mxCell>
        <mxCell id="XFLzxQZfM_v2sXhXUsD--196" value="" style="group;aspect=fixed;fontStyle=1" parent="XFLzxQZfM_v2sXhXUsD--195" vertex="1" connectable="0">
          <mxGeometry x="25.5" width="75" height="75" as="geometry" />
        </mxCell>
        <mxCell id="XFLzxQZfM_v2sXhXUsD--197" value="" style="whiteSpace=wrap;html=1;aspect=fixed;fillColor=#001135;strokeColor=none;connectable=1;allowArrows=1;fontStyle=1" parent="XFLzxQZfM_v2sXhXUsD--196" vertex="1">
          <mxGeometry width="75" height="75" as="geometry" />
        </mxCell>
        <mxCell id="XFLzxQZfM_v2sXhXUsD--198" value="" style="endArrow=open;html=1;edgeStyle=orthogonalEdgeStyle;rounded=0;endFill=0;startSize=6;endSize=6;strokeColor=#FFFFFF;strokeWidth=2;fontStyle=1" parent="XFLzxQZfM_v2sXhXUsD--196" edge="1">
          <mxGeometry width="50" height="50" relative="1" as="geometry">
            <mxPoint x="7.5" y="30" as="sourcePoint" />
            <mxPoint x="27.499999999999996" y="7.5" as="targetPoint" />
            <Array as="points">
              <mxPoint x="27.499999999999996" y="30" />
            </Array>
          </mxGeometry>
        </mxCell>
        <mxCell id="XFLzxQZfM_v2sXhXUsD--199" value="" style="endArrow=open;html=1;edgeStyle=orthogonalEdgeStyle;rounded=0;endFill=0;startSize=6;endSize=6;strokeColor=#FFFFFF;strokeWidth=2;fontStyle=1" parent="XFLzxQZfM_v2sXhXUsD--196" edge="1">
          <mxGeometry width="50" height="50" relative="1" as="geometry">
            <mxPoint x="27.499999999999996" y="67.5" as="sourcePoint" />
            <mxPoint x="7.5" y="47.49999999999999" as="targetPoint" />
            <Array as="points">
              <mxPoint x="27.499999999999996" y="47.49999999999999" />
            </Array>
          </mxGeometry>
        </mxCell>
        <mxCell id="XFLzxQZfM_v2sXhXUsD--200" value="" style="endArrow=open;html=1;edgeStyle=orthogonalEdgeStyle;rounded=0;endFill=0;startSize=6;endSize=6;strokeColor=#FFFFFF;strokeWidth=2;fontStyle=1" parent="XFLzxQZfM_v2sXhXUsD--196" edge="1">
          <mxGeometry width="50" height="50" relative="1" as="geometry">
            <mxPoint x="44.99999999999999" y="7.5" as="sourcePoint" />
            <mxPoint x="67.5" y="30" as="targetPoint" />
            <Array as="points">
              <mxPoint x="44.99999999999999" y="30" />
            </Array>
          </mxGeometry>
        </mxCell>
        <mxCell id="XFLzxQZfM_v2sXhXUsD--201" value="" style="endArrow=open;html=1;edgeStyle=orthogonalEdgeStyle;rounded=0;endFill=0;startSize=6;endSize=6;strokeColor=#FFFFFF;strokeWidth=2;fontStyle=1" parent="XFLzxQZfM_v2sXhXUsD--196" edge="1">
          <mxGeometry width="50" height="50" relative="1" as="geometry">
            <mxPoint x="67.5" y="47.49999999999999" as="sourcePoint" />
            <mxPoint x="44.99999999999999" y="67.5" as="targetPoint" />
            <Array as="points">
              <mxPoint x="44.99999999999999" y="47.49999999999999" />
            </Array>
          </mxGeometry>
        </mxCell>
        <mxCell id="XFLzxQZfM_v2sXhXUsD--202" value="leaf2-dc2" style="text;html=1;align=center;verticalAlign=middle;resizable=0;points=[];autosize=1;strokeColor=none;fillColor=none;fontFamily=Google Sans;fontSource=https%3A%2F%2Ffonts.googleapis.com%2Fcss%3Ffamily%3DGoogle%2BSans;fontColor=#FFFFFF;rotation=-90;fontStyle=1" parent="XFLzxQZfM_v2sXhXUsD--195" vertex="1">
          <mxGeometry x="-21.5" y="24.5" width="69" height="26" as="geometry" />
        </mxCell>
        <mxCell id="XFLzxQZfM_v2sXhXUsD--203" value="" style="group" parent="1" vertex="1" connectable="0">
          <mxGeometry x="1802.0049999999999" y="919" width="76.245" height="101" as="geometry" />
        </mxCell>
        <mxCell id="XFLzxQZfM_v2sXhXUsD--204" value="" style="group;aspect=fixed;" parent="XFLzxQZfM_v2sXhXUsD--203" vertex="1" connectable="0">
          <mxGeometry width="75.49000000000001" height="75" as="geometry" />
        </mxCell>
        <mxCell id="XFLzxQZfM_v2sXhXUsD--205" value="" style="whiteSpace=wrap;html=1;aspect=fixed;fillColor=#001135;strokeColor=none;connectable=1;allowArrows=1;" parent="XFLzxQZfM_v2sXhXUsD--204" vertex="1">
          <mxGeometry x="0.24500000000000455" width="75" height="75" as="geometry" />
        </mxCell>
        <mxCell id="XFLzxQZfM_v2sXhXUsD--206" value="" style="endArrow=none;html=1;rounded=0;entryX=0.907;entryY=0.793;entryDx=0;entryDy=0;entryPerimeter=0;exitX=0.08;exitY=0.793;exitDx=0;exitDy=0;exitPerimeter=0;strokeColor=#FFFFFF;strokeWidth=2;" parent="XFLzxQZfM_v2sXhXUsD--204" edge="1">
          <mxGeometry width="50" height="50" relative="1" as="geometry">
            <mxPoint x="6.490000000000009" y="60.23500000000013" as="sourcePoint" />
            <mxPoint x="68.5150000000001" y="60.23500000000013" as="targetPoint" />
          </mxGeometry>
        </mxCell>
        <mxCell id="XFLzxQZfM_v2sXhXUsD--207" value="" style="rounded=1;whiteSpace=wrap;html=1;arcSize=14;fillColor=none;strokeColor=#FFFFFF;strokeWidth=2;" parent="XFLzxQZfM_v2sXhXUsD--204" vertex="1">
          <mxGeometry x="12.245000000000005" y="15.760000000000048" width="51" height="38.46" as="geometry" />
        </mxCell>
        <mxCell id="XFLzxQZfM_v2sXhXUsD--208" value="" style="ellipse;whiteSpace=wrap;html=1;aspect=fixed;strokeColor=none;" parent="XFLzxQZfM_v2sXhXUsD--204" vertex="1">
          <mxGeometry x="36.245000000000005" y="21.220000000000027" width="3" height="3" as="geometry" />
        </mxCell>
        <mxCell id="XFLzxQZfM_v2sXhXUsD--209" value="client7" style="text;html=1;align=center;verticalAlign=middle;resizable=0;points=[];autosize=1;strokeColor=none;fillColor=none;fontFamily=Google Sans;fontSource=https%3A%2F%2Ffonts.googleapis.com%2Fcss%3Ffamily%3DGoogle%2BSans;fontColor=#FFFFFF;fontStyle=1" parent="XFLzxQZfM_v2sXhXUsD--203" vertex="1">
          <mxGeometry x="11.245000000000005" y="75" width="53" height="26" as="geometry" />
        </mxCell>
        <mxCell id="XFLzxQZfM_v2sXhXUsD--210" value="" style="group" parent="1" vertex="1" connectable="0">
          <mxGeometry x="2171.24" y="1114.5" width="78" height="101" as="geometry" />
        </mxCell>
        <mxCell id="XFLzxQZfM_v2sXhXUsD--211" value="" style="group;aspect=fixed;" parent="XFLzxQZfM_v2sXhXUsD--210" vertex="1" connectable="0">
          <mxGeometry x="0.7549999999999955" width="75.49000000000001" height="75" as="geometry" />
        </mxCell>
        <mxCell id="XFLzxQZfM_v2sXhXUsD--212" value="" style="whiteSpace=wrap;html=1;aspect=fixed;fillColor=#001135;strokeColor=none;connectable=1;allowArrows=1;" parent="XFLzxQZfM_v2sXhXUsD--211" vertex="1">
          <mxGeometry x="0.24500000000000455" width="75" height="75" as="geometry" />
        </mxCell>
        <mxCell id="XFLzxQZfM_v2sXhXUsD--213" value="" style="endArrow=none;html=1;rounded=0;entryX=0.907;entryY=0.793;entryDx=0;entryDy=0;entryPerimeter=0;exitX=0.08;exitY=0.793;exitDx=0;exitDy=0;exitPerimeter=0;strokeColor=#FFFFFF;strokeWidth=2;" parent="XFLzxQZfM_v2sXhXUsD--211" edge="1">
          <mxGeometry width="50" height="50" relative="1" as="geometry">
            <mxPoint x="6.490000000000009" y="60.23500000000013" as="sourcePoint" />
            <mxPoint x="68.5150000000001" y="60.23500000000013" as="targetPoint" />
          </mxGeometry>
        </mxCell>
        <mxCell id="XFLzxQZfM_v2sXhXUsD--214" value="" style="rounded=1;whiteSpace=wrap;html=1;arcSize=14;fillColor=none;strokeColor=#FFFFFF;strokeWidth=2;" parent="XFLzxQZfM_v2sXhXUsD--211" vertex="1">
          <mxGeometry x="12.245000000000005" y="15.760000000000048" width="51" height="38.46" as="geometry" />
        </mxCell>
        <mxCell id="XFLzxQZfM_v2sXhXUsD--215" value="" style="ellipse;whiteSpace=wrap;html=1;aspect=fixed;strokeColor=none;" parent="XFLzxQZfM_v2sXhXUsD--211" vertex="1">
          <mxGeometry x="36.245000000000005" y="21.220000000000027" width="3" height="3" as="geometry" />
        </mxCell>
        <mxCell id="XFLzxQZfM_v2sXhXUsD--216" value="client9-dc2" style="text;html=1;align=center;verticalAlign=middle;resizable=0;points=[];autosize=1;strokeColor=none;fillColor=none;fontFamily=Google Sans;fontSource=https%3A%2F%2Ffonts.googleapis.com%2Fcss%3Ffamily%3DGoogle%2BSans;fontColor=#FFFFFF;fontStyle=1" parent="XFLzxQZfM_v2sXhXUsD--210" vertex="1">
          <mxGeometry x="-1" y="75" width="79" height="26" as="geometry" />
        </mxCell>
        <mxCell id="XFLzxQZfM_v2sXhXUsD--233" value="" style="group;fontStyle=1" parent="1" vertex="1" connectable="0">
          <mxGeometry x="2070.24" y="745.5" width="101" height="75" as="geometry" />
        </mxCell>
        <mxCell id="XFLzxQZfM_v2sXhXUsD--234" value="" style="group;aspect=fixed;fontStyle=1" parent="XFLzxQZfM_v2sXhXUsD--233" vertex="1" connectable="0">
          <mxGeometry x="26" width="75" height="75" as="geometry" />
        </mxCell>
        <mxCell id="XFLzxQZfM_v2sXhXUsD--235" value="" style="whiteSpace=wrap;html=1;aspect=fixed;fillColor=#001135;strokeColor=none;connectable=1;allowArrows=1;fontStyle=1" parent="XFLzxQZfM_v2sXhXUsD--234" vertex="1">
          <mxGeometry width="75" height="75" as="geometry" />
        </mxCell>
        <mxCell id="XFLzxQZfM_v2sXhXUsD--236" value="" style="endArrow=open;html=1;edgeStyle=orthogonalEdgeStyle;rounded=0;endFill=0;startSize=6;endSize=6;strokeColor=#FFFFFF;strokeWidth=2;fontStyle=1" parent="XFLzxQZfM_v2sXhXUsD--234" edge="1">
          <mxGeometry width="50" height="50" relative="1" as="geometry">
            <mxPoint x="7.5" y="30" as="sourcePoint" />
            <mxPoint x="27.499999999999996" y="7.5" as="targetPoint" />
            <Array as="points">
              <mxPoint x="27.499999999999996" y="30" />
            </Array>
          </mxGeometry>
        </mxCell>
        <mxCell id="XFLzxQZfM_v2sXhXUsD--237" value="" style="endArrow=open;html=1;edgeStyle=orthogonalEdgeStyle;rounded=0;endFill=0;startSize=6;endSize=6;strokeColor=#FFFFFF;strokeWidth=2;fontStyle=1" parent="XFLzxQZfM_v2sXhXUsD--234" edge="1">
          <mxGeometry width="50" height="50" relative="1" as="geometry">
            <mxPoint x="27.499999999999996" y="67.5" as="sourcePoint" />
            <mxPoint x="7.5" y="47.49999999999999" as="targetPoint" />
            <Array as="points">
              <mxPoint x="27.499999999999996" y="47.49999999999999" />
            </Array>
          </mxGeometry>
        </mxCell>
        <mxCell id="XFLzxQZfM_v2sXhXUsD--238" value="" style="endArrow=open;html=1;edgeStyle=orthogonalEdgeStyle;rounded=0;endFill=0;startSize=6;endSize=6;strokeColor=#FFFFFF;strokeWidth=2;fontStyle=1" parent="XFLzxQZfM_v2sXhXUsD--234" edge="1">
          <mxGeometry width="50" height="50" relative="1" as="geometry">
            <mxPoint x="44.99999999999999" y="7.5" as="sourcePoint" />
            <mxPoint x="67.5" y="30" as="targetPoint" />
            <Array as="points">
              <mxPoint x="44.99999999999999" y="30" />
            </Array>
          </mxGeometry>
        </mxCell>
        <mxCell id="XFLzxQZfM_v2sXhXUsD--239" value="" style="endArrow=open;html=1;edgeStyle=orthogonalEdgeStyle;rounded=0;endFill=0;startSize=6;endSize=6;strokeColor=#FFFFFF;strokeWidth=2;fontStyle=1" parent="XFLzxQZfM_v2sXhXUsD--234" edge="1">
          <mxGeometry width="50" height="50" relative="1" as="geometry">
            <mxPoint x="67.5" y="47.49999999999999" as="sourcePoint" />
            <mxPoint x="44.99999999999999" y="67.5" as="targetPoint" />
            <Array as="points">
              <mxPoint x="44.99999999999999" y="47.49999999999999" />
            </Array>
          </mxGeometry>
        </mxCell>
        <mxCell id="XFLzxQZfM_v2sXhXUsD--240" value="spine1-dc2" style="text;html=1;align=center;verticalAlign=middle;resizable=0;points=[];autosize=1;strokeColor=none;fillColor=none;fontFamily=Google Sans;fontSource=https%3A%2F%2Ffonts.googleapis.com%2Fcss%3Ffamily%3DGoogle%2BSans;fontColor=#FFFFFF;rotation=-90;fontStyle=1" parent="XFLzxQZfM_v2sXhXUsD--233" vertex="1">
          <mxGeometry x="-25" y="24.500000000000057" width="77" height="26" as="geometry" />
        </mxCell>
        <mxCell id="XFLzxQZfM_v2sXhXUsD--249" value="" style="group;fontStyle=1" parent="1" vertex="1" connectable="0">
          <mxGeometry x="1776" y="715" width="101" height="76" as="geometry" />
        </mxCell>
        <mxCell id="XFLzxQZfM_v2sXhXUsD--250" value="" style="group;fontStyle=1" parent="XFLzxQZfM_v2sXhXUsD--249" vertex="1" connectable="0">
          <mxGeometry x="26" y="1.4999999999999716" width="75" height="75.00000000000006" as="geometry" />
        </mxCell>
        <mxCell id="XFLzxQZfM_v2sXhXUsD--251" value="" style="whiteSpace=wrap;html=1;aspect=fixed;fillColor=#124191;strokeColor=none;connectable=1;allowArrows=1;fontStyle=1" parent="XFLzxQZfM_v2sXhXUsD--250" vertex="1">
          <mxGeometry width="75" height="75" as="geometry" />
        </mxCell>
        <mxCell id="XFLzxQZfM_v2sXhXUsD--252" value="" style="endArrow=open;html=1;rounded=0;endFill=0;startSize=6;endSize=6;strokeColor=#FFFFFF;strokeWidth=2;entryX=0.56;entryY=0.441;entryDx=0;entryDy=0;entryPerimeter=0;exitX=0.84;exitY=0.161;exitDx=0;exitDy=0;exitPerimeter=0;fontStyle=1" parent="XFLzxQZfM_v2sXhXUsD--250" source="XFLzxQZfM_v2sXhXUsD--251" target="XFLzxQZfM_v2sXhXUsD--251" edge="1">
          <mxGeometry width="50" height="50" relative="1" as="geometry">
            <mxPoint x="63" y="12.069999999999993" as="sourcePoint" />
            <mxPoint x="43" y="32.06999999999999" as="targetPoint" />
          </mxGeometry>
        </mxCell>
        <mxCell id="XFLzxQZfM_v2sXhXUsD--253" value="" style="endArrow=open;html=1;rounded=0;endFill=0;startSize=6;endSize=6;strokeColor=#FFFFFF;strokeWidth=2;entryX=0.44;entryY=0.561;entryDx=0;entryDy=0;entryPerimeter=0;exitX=0.16;exitY=0.841;exitDx=0;exitDy=0;exitPerimeter=0;fontStyle=1" parent="XFLzxQZfM_v2sXhXUsD--250" edge="1">
          <mxGeometry width="50" height="50" relative="1" as="geometry">
            <mxPoint x="11.999999999999943" y="63.07500000000033" as="sourcePoint" />
            <mxPoint x="33" y="42.0750000000001" as="targetPoint" />
          </mxGeometry>
        </mxCell>
        <mxCell id="XFLzxQZfM_v2sXhXUsD--254" value="" style="endArrow=open;html=1;rounded=0;endFill=0;startSize=6;endSize=6;strokeColor=#FFFFFF;strokeWidth=2;entryX=0.173;entryY=0.174;entryDx=0;entryDy=0;entryPerimeter=0;exitX=0.44;exitY=0.441;exitDx=0;exitDy=0;exitPerimeter=0;fontStyle=1" parent="XFLzxQZfM_v2sXhXUsD--250" source="XFLzxQZfM_v2sXhXUsD--251" target="XFLzxQZfM_v2sXhXUsD--251" edge="1">
          <mxGeometry width="50" height="50" relative="1" as="geometry">
            <mxPoint x="65" y="14.069999999999993" as="sourcePoint" />
            <mxPoint x="44" y="35.06999999999999" as="targetPoint" />
          </mxGeometry>
        </mxCell>
        <mxCell id="XFLzxQZfM_v2sXhXUsD--255" value="" style="endArrow=open;html=1;rounded=0;endFill=0;startSize=6;endSize=6;strokeColor=#FFFFFF;strokeWidth=2;entryX=0.827;entryY=0.828;entryDx=0;entryDy=0;entryPerimeter=0;fontStyle=1" parent="XFLzxQZfM_v2sXhXUsD--250" target="XFLzxQZfM_v2sXhXUsD--251" edge="1">
          <mxGeometry width="50" height="50" relative="1" as="geometry">
            <mxPoint x="42" y="42.06999999999999" as="sourcePoint" />
            <mxPoint x="15" y="15.069999999999993" as="targetPoint" />
          </mxGeometry>
        </mxCell>
        <mxCell id="XFLzxQZfM_v2sXhXUsD--256" value="pe-30" style="text;html=1;align=center;verticalAlign=middle;resizable=0;points=[];autosize=1;strokeColor=none;fillColor=none;fontFamily=Google Sans;fontSource=https%3A%2F%2Ffonts.googleapis.com%2Fcss%3Ffamily%3DGoogle%2BSans;fontColor=#FFFFFF;rotation=-90;fontStyle=1" parent="XFLzxQZfM_v2sXhXUsD--249" vertex="1">
          <mxGeometry x="-11" y="25" width="52" height="26" as="geometry" />
        </mxCell>
        <mxCell id="XFLzxQZfM_v2sXhXUsD--257" value="" style="group;fontStyle=1" parent="1" vertex="1" connectable="0">
          <mxGeometry x="2069.24" y="532" width="101" height="78" as="geometry" />
        </mxCell>
        <mxCell id="XFLzxQZfM_v2sXhXUsD--258" value="" style="group;fontStyle=1" parent="XFLzxQZfM_v2sXhXUsD--257" vertex="1" connectable="0">
          <mxGeometry x="26" y="1.4999999999999716" width="75" height="75.00000000000006" as="geometry" />
        </mxCell>
        <mxCell id="XFLzxQZfM_v2sXhXUsD--259" value="" style="whiteSpace=wrap;html=1;aspect=fixed;fillColor=#124191;strokeColor=none;connectable=1;allowArrows=1;fontStyle=1" parent="XFLzxQZfM_v2sXhXUsD--258" vertex="1">
          <mxGeometry width="75" height="75" as="geometry" />
        </mxCell>
        <mxCell id="XFLzxQZfM_v2sXhXUsD--260" value="" style="endArrow=open;html=1;rounded=0;endFill=0;startSize=6;endSize=6;strokeColor=#FFFFFF;strokeWidth=2;entryX=0.56;entryY=0.441;entryDx=0;entryDy=0;entryPerimeter=0;exitX=0.84;exitY=0.161;exitDx=0;exitDy=0;exitPerimeter=0;fontStyle=1" parent="XFLzxQZfM_v2sXhXUsD--258" source="XFLzxQZfM_v2sXhXUsD--259" target="XFLzxQZfM_v2sXhXUsD--259" edge="1">
          <mxGeometry width="50" height="50" relative="1" as="geometry">
            <mxPoint x="63" y="12.069999999999993" as="sourcePoint" />
            <mxPoint x="43" y="32.06999999999999" as="targetPoint" />
          </mxGeometry>
        </mxCell>
        <mxCell id="XFLzxQZfM_v2sXhXUsD--261" value="" style="endArrow=open;html=1;rounded=0;endFill=0;startSize=6;endSize=6;strokeColor=#FFFFFF;strokeWidth=2;entryX=0.44;entryY=0.561;entryDx=0;entryDy=0;entryPerimeter=0;exitX=0.16;exitY=0.841;exitDx=0;exitDy=0;exitPerimeter=0;fontStyle=1" parent="XFLzxQZfM_v2sXhXUsD--258" edge="1">
          <mxGeometry width="50" height="50" relative="1" as="geometry">
            <mxPoint x="11.999999999999943" y="63.07500000000033" as="sourcePoint" />
            <mxPoint x="33" y="42.0750000000001" as="targetPoint" />
          </mxGeometry>
        </mxCell>
        <mxCell id="XFLzxQZfM_v2sXhXUsD--262" value="" style="endArrow=open;html=1;rounded=0;endFill=0;startSize=6;endSize=6;strokeColor=#FFFFFF;strokeWidth=2;entryX=0.173;entryY=0.174;entryDx=0;entryDy=0;entryPerimeter=0;exitX=0.44;exitY=0.441;exitDx=0;exitDy=0;exitPerimeter=0;fontStyle=1" parent="XFLzxQZfM_v2sXhXUsD--258" source="XFLzxQZfM_v2sXhXUsD--259" target="XFLzxQZfM_v2sXhXUsD--259" edge="1">
          <mxGeometry width="50" height="50" relative="1" as="geometry">
            <mxPoint x="65" y="14.069999999999993" as="sourcePoint" />
            <mxPoint x="44" y="35.06999999999999" as="targetPoint" />
          </mxGeometry>
        </mxCell>
        <mxCell id="XFLzxQZfM_v2sXhXUsD--263" value="" style="endArrow=open;html=1;rounded=0;endFill=0;startSize=6;endSize=6;strokeColor=#FFFFFF;strokeWidth=2;entryX=0.827;entryY=0.828;entryDx=0;entryDy=0;entryPerimeter=0;fontStyle=1" parent="XFLzxQZfM_v2sXhXUsD--258" target="XFLzxQZfM_v2sXhXUsD--259" edge="1">
          <mxGeometry width="50" height="50" relative="1" as="geometry">
            <mxPoint x="42" y="42.06999999999999" as="sourcePoint" />
            <mxPoint x="15" y="15.069999999999993" as="targetPoint" />
          </mxGeometry>
        </mxCell>
        <mxCell id="XFLzxQZfM_v2sXhXUsD--264" value="dc2-pe1" style="text;html=1;align=center;verticalAlign=middle;resizable=0;points=[];autosize=1;strokeColor=none;fillColor=none;fontFamily=Google Sans;fontSource=https%3A%2F%2Ffonts.googleapis.com%2Fcss%3Ffamily%3DGoogle%2BSans;fontColor=#FFFFFF;rotation=-90;fontStyle=1" parent="XFLzxQZfM_v2sXhXUsD--257" vertex="1">
          <mxGeometry x="-17" y="26" width="62" height="26" as="geometry" />
        </mxCell>
        <mxCell id="WVs_OT1eYx0916ij7yWF-8" value="&lt;font data-font-src=&quot;https://fonts.googleapis.com/css?family=Google+Sans&quot; face=&quot;Google Sans&quot; style=&quot;font-size: 19px;&quot;&gt;WAN1&lt;/font&gt;" style="whiteSpace=wrap;html=1;fillColor=#D6D6D6;fontColor=#333333;strokeColor=#666666;" parent="1" vertex="1">
          <mxGeometry x="1298" y="365" width="101" height="41" as="geometry" />
        </mxCell>
        <mxCell id="WVs_OT1eYx0916ij7yWF-9" value="&lt;font data-font-src=&quot;https://fonts.googleapis.com/css?family=Google+Sans&quot; face=&quot;Google Sans&quot; style=&quot;font-size: 19px;&quot;&gt;DC1&lt;/font&gt;" style="whiteSpace=wrap;html=1;fillColor=#D6D6D6;fontColor=#333333;strokeColor=#666666;" parent="1" vertex="1">
          <mxGeometry x="1173" y="714" width="79" height="41" as="geometry" />
        </mxCell>
        <mxCell id="WVs_OT1eYx0916ij7yWF-10" value="&lt;font data-font-src=&quot;https://fonts.googleapis.com/css?family=Google+Sans&quot; face=&quot;Google Sans&quot; style=&quot;font-size: 19px;&quot;&gt;DC2&lt;/font&gt;" style="whiteSpace=wrap;html=1;fillColor=#D6D6D6;fontColor=#333333;strokeColor=#666666;" parent="1" vertex="1">
          <mxGeometry x="2207" y="717.5" width="79" height="41" as="geometry" />
        </mxCell>
        <mxCell id="WVs_OT1eYx0916ij7yWF-11" value="&lt;font data-font-src=&quot;https://fonts.googleapis.com/css?family=Google+Sans&quot; face=&quot;Google Sans&quot; style=&quot;font-size: 19px;&quot;&gt;WAN2&lt;/font&gt;" style="whiteSpace=wrap;html=1;fillColor=#D6D6D6;fontColor=#333333;strokeColor=#666666;" parent="1" vertex="1">
          <mxGeometry x="1867" y="802" width="101" height="41" as="geometry" />
        </mxCell>
        <mxCell id="TSjxLKtJQKfFz80jZX6N-1" value="" style="group;fontStyle=1" vertex="1" connectable="0" parent="1">
          <mxGeometry x="1599" y="975" width="100.5" height="75" as="geometry" />
        </mxCell>
        <mxCell id="TSjxLKtJQKfFz80jZX6N-2" value="" style="group;aspect=fixed;fontStyle=1" vertex="1" connectable="0" parent="TSjxLKtJQKfFz80jZX6N-1">
          <mxGeometry x="23.5" width="75" height="75" as="geometry" />
        </mxCell>
        <mxCell id="TSjxLKtJQKfFz80jZX6N-3" value="" style="whiteSpace=wrap;html=1;aspect=fixed;fillColor=#001135;strokeColor=none;connectable=1;allowArrows=1;fontStyle=1" vertex="1" parent="TSjxLKtJQKfFz80jZX6N-2">
          <mxGeometry width="75" height="75" as="geometry" />
        </mxCell>
        <mxCell id="TSjxLKtJQKfFz80jZX6N-4" value="" style="endArrow=open;html=1;edgeStyle=orthogonalEdgeStyle;rounded=0;endFill=0;startSize=6;endSize=6;strokeColor=#FFFFFF;strokeWidth=2;fontStyle=1" edge="1" parent="TSjxLKtJQKfFz80jZX6N-2">
          <mxGeometry width="50" height="50" relative="1" as="geometry">
            <mxPoint x="7.5" y="30" as="sourcePoint" />
            <mxPoint x="27.499999999999996" y="7.5" as="targetPoint" />
            <Array as="points">
              <mxPoint x="27.499999999999996" y="30" />
            </Array>
          </mxGeometry>
        </mxCell>
        <mxCell id="TSjxLKtJQKfFz80jZX6N-5" value="" style="endArrow=open;html=1;edgeStyle=orthogonalEdgeStyle;rounded=0;endFill=0;startSize=6;endSize=6;strokeColor=#FFFFFF;strokeWidth=2;fontStyle=1" edge="1" parent="TSjxLKtJQKfFz80jZX6N-2">
          <mxGeometry width="50" height="50" relative="1" as="geometry">
            <mxPoint x="27.499999999999996" y="67.5" as="sourcePoint" />
            <mxPoint x="7.5" y="47.49999999999999" as="targetPoint" />
            <Array as="points">
              <mxPoint x="27.499999999999996" y="47.49999999999999" />
            </Array>
          </mxGeometry>
        </mxCell>
        <mxCell id="TSjxLKtJQKfFz80jZX6N-6" value="" style="endArrow=open;html=1;edgeStyle=orthogonalEdgeStyle;rounded=0;endFill=0;startSize=6;endSize=6;strokeColor=#FFFFFF;strokeWidth=2;fontStyle=1" edge="1" parent="TSjxLKtJQKfFz80jZX6N-2">
          <mxGeometry width="50" height="50" relative="1" as="geometry">
            <mxPoint x="44.99999999999999" y="7.5" as="sourcePoint" />
            <mxPoint x="67.5" y="30" as="targetPoint" />
            <Array as="points">
              <mxPoint x="44.99999999999999" y="30" />
            </Array>
          </mxGeometry>
        </mxCell>
        <mxCell id="TSjxLKtJQKfFz80jZX6N-7" value="" style="endArrow=open;html=1;edgeStyle=orthogonalEdgeStyle;rounded=0;endFill=0;startSize=6;endSize=6;strokeColor=#FFFFFF;strokeWidth=2;fontStyle=1" edge="1" parent="TSjxLKtJQKfFz80jZX6N-2">
          <mxGeometry width="50" height="50" relative="1" as="geometry">
            <mxPoint x="67.5" y="47.49999999999999" as="sourcePoint" />
            <mxPoint x="44.99999999999999" y="67.5" as="targetPoint" />
            <Array as="points">
              <mxPoint x="44.99999999999999" y="47.49999999999999" />
            </Array>
          </mxGeometry>
        </mxCell>
        <mxCell id="TSjxLKtJQKfFz80jZX6N-8" value="leaf4-dc1" style="text;html=1;align=center;verticalAlign=middle;resizable=0;points=[];autosize=1;strokeColor=none;fillColor=none;fontFamily=Google Sans;fontSource=https%3A%2F%2Ffonts.googleapis.com%2Fcss%3Ffamily%3DGoogle%2BSans;fontColor=#FFFFFF;rotation=-90;fontStyle=1" vertex="1" parent="TSjxLKtJQKfFz80jZX6N-1">
          <mxGeometry x="-21.5" y="24.5" width="69" height="26" as="geometry" />
        </mxCell>
        <mxCell id="TSjxLKtJQKfFz80jZX6N-9" value="" style="group;fontStyle=1" vertex="1" connectable="0" parent="1">
          <mxGeometry x="1186" y="975.04" width="101" height="75" as="geometry" />
        </mxCell>
        <mxCell id="TSjxLKtJQKfFz80jZX6N-10" value="" style="group;aspect=fixed;fontStyle=1" vertex="1" connectable="0" parent="TSjxLKtJQKfFz80jZX6N-9">
          <mxGeometry x="26" width="75" height="75" as="geometry" />
        </mxCell>
        <mxCell id="TSjxLKtJQKfFz80jZX6N-11" value="" style="whiteSpace=wrap;html=1;aspect=fixed;fillColor=#001135;strokeColor=none;connectable=1;allowArrows=1;fontStyle=1" vertex="1" parent="TSjxLKtJQKfFz80jZX6N-10">
          <mxGeometry width="75" height="75" as="geometry" />
        </mxCell>
        <mxCell id="TSjxLKtJQKfFz80jZX6N-12" value="" style="endArrow=open;html=1;edgeStyle=orthogonalEdgeStyle;rounded=0;endFill=0;startSize=6;endSize=6;strokeColor=#FFFFFF;strokeWidth=2;fontStyle=1" edge="1" parent="TSjxLKtJQKfFz80jZX6N-10">
          <mxGeometry width="50" height="50" relative="1" as="geometry">
            <mxPoint x="7.5" y="30" as="sourcePoint" />
            <mxPoint x="27.499999999999996" y="7.5" as="targetPoint" />
            <Array as="points">
              <mxPoint x="27.499999999999996" y="30" />
            </Array>
          </mxGeometry>
        </mxCell>
        <mxCell id="TSjxLKtJQKfFz80jZX6N-13" value="" style="endArrow=open;html=1;edgeStyle=orthogonalEdgeStyle;rounded=0;endFill=0;startSize=6;endSize=6;strokeColor=#FFFFFF;strokeWidth=2;fontStyle=1" edge="1" parent="TSjxLKtJQKfFz80jZX6N-10">
          <mxGeometry width="50" height="50" relative="1" as="geometry">
            <mxPoint x="27.499999999999996" y="67.5" as="sourcePoint" />
            <mxPoint x="7.5" y="47.49999999999999" as="targetPoint" />
            <Array as="points">
              <mxPoint x="27.499999999999996" y="47.49999999999999" />
            </Array>
          </mxGeometry>
        </mxCell>
        <mxCell id="TSjxLKtJQKfFz80jZX6N-14" value="" style="endArrow=open;html=1;edgeStyle=orthogonalEdgeStyle;rounded=0;endFill=0;startSize=6;endSize=6;strokeColor=#FFFFFF;strokeWidth=2;fontStyle=1" edge="1" parent="TSjxLKtJQKfFz80jZX6N-10">
          <mxGeometry width="50" height="50" relative="1" as="geometry">
            <mxPoint x="44.99999999999999" y="7.5" as="sourcePoint" />
            <mxPoint x="67.5" y="30" as="targetPoint" />
            <Array as="points">
              <mxPoint x="44.99999999999999" y="30" />
            </Array>
          </mxGeometry>
        </mxCell>
        <mxCell id="TSjxLKtJQKfFz80jZX6N-15" value="" style="endArrow=open;html=1;edgeStyle=orthogonalEdgeStyle;rounded=0;endFill=0;startSize=6;endSize=6;strokeColor=#FFFFFF;strokeWidth=2;fontStyle=1" edge="1" parent="TSjxLKtJQKfFz80jZX6N-10">
          <mxGeometry width="50" height="50" relative="1" as="geometry">
            <mxPoint x="67.5" y="47.49999999999999" as="sourcePoint" />
            <mxPoint x="44.99999999999999" y="67.5" as="targetPoint" />
            <Array as="points">
              <mxPoint x="44.99999999999999" y="47.49999999999999" />
            </Array>
          </mxGeometry>
        </mxCell>
        <mxCell id="TSjxLKtJQKfFz80jZX6N-16" value="leaf1-dc1" style="text;html=1;align=center;verticalAlign=middle;resizable=0;points=[];autosize=1;strokeColor=none;fillColor=none;fontFamily=Google Sans;fontSource=https%3A%2F%2Ffonts.googleapis.com%2Fcss%3Ffamily%3DGoogle%2BSans;fontColor=#FFFFFF;rotation=-90;fontStyle=1" vertex="1" parent="TSjxLKtJQKfFz80jZX6N-9">
          <mxGeometry x="-20" y="24.500000000000057" width="66" height="26" as="geometry" />
        </mxCell>
        <object label="" src_label="e1-6" trgt_label="e1-31" source="spine1-dc1" target="leaf4-dc1" id="TSjxLKtJQKfFz80jZX6N-18">
          <mxCell style="endArrow=none;jumpStyle=gap;fontFamily=Google Sans;fontSource=https%3A%2F%2Ffonts.googleapis.com%2Fcss%3Ffamily%3DGoogle%2BSans;strokeColor=#98A2AE;exitX=0.5;exitY=1;exitDx=0;exitDy=0;entryX=0.5;entryY=0;entryDx=0;entryDy=0;" edge="1" parent="1" source="XFLzxQZfM_v2sXhXUsD--76" target="TSjxLKtJQKfFz80jZX6N-11">
            <mxGeometry relative="1" as="geometry">
              <mxPoint x="1283" y="1143" as="sourcePoint" />
              <mxPoint x="1210" y="1103" as="targetPoint" />
            </mxGeometry>
          </mxCell>
        </object>
        <object label="" src_label="e1-6" trgt_label="e1-31" source="spine1-dc1" target="leaf4-dc1" id="TSjxLKtJQKfFz80jZX6N-19">
          <mxCell style="endArrow=none;jumpStyle=gap;fontFamily=Google Sans;fontSource=https%3A%2F%2Ffonts.googleapis.com%2Fcss%3Ffamily%3DGoogle%2BSans;strokeColor=#98A2AE;entryX=0.5;entryY=1;entryDx=0;entryDy=0;exitX=0.5;exitY=0;exitDx=0;exitDy=0;" edge="1" parent="1" source="TSjxLKtJQKfFz80jZX6N-3" target="XFLzxQZfM_v2sXhXUsD--76">
            <mxGeometry relative="1" as="geometry">
              <mxPoint x="1283" y="1143" as="sourcePoint" />
              <mxPoint x="1210" y="1103" as="targetPoint" />
            </mxGeometry>
          </mxCell>
        </object>
        <object label="" src_label="e1-6" trgt_label="e1-31" source="spine1-dc1" target="leaf4-dc1" id="TSjxLKtJQKfFz80jZX6N-20">
          <mxCell style="endArrow=none;jumpStyle=gap;fontFamily=Google Sans;fontSource=https%3A%2F%2Ffonts.googleapis.com%2Fcss%3Ffamily%3DGoogle%2BSans;strokeColor=#98A2AE;exitX=0.5;exitY=1;exitDx=0;exitDy=0;entryX=0.5;entryY=0;entryDx=0;entryDy=0;" edge="1" parent="1" source="XFLzxQZfM_v2sXhXUsD--84" target="TSjxLKtJQKfFz80jZX6N-11">
            <mxGeometry relative="1" as="geometry">
              <mxPoint x="1283" y="1143" as="sourcePoint" />
              <mxPoint x="1210" y="1103" as="targetPoint" />
            </mxGeometry>
          </mxCell>
        </object>
        <object label="" src_label="e1-6" trgt_label="e1-31" source="spine1-dc1" target="leaf4-dc1" id="TSjxLKtJQKfFz80jZX6N-21">
          <mxCell style="endArrow=none;jumpStyle=gap;fontFamily=Google Sans;fontSource=https%3A%2F%2Ffonts.googleapis.com%2Fcss%3Ffamily%3DGoogle%2BSans;strokeColor=#98A2AE;exitX=0.5;exitY=1;exitDx=0;exitDy=0;entryX=0.5;entryY=0;entryDx=0;entryDy=0;" edge="1" parent="1" source="XFLzxQZfM_v2sXhXUsD--84" target="TSjxLKtJQKfFz80jZX6N-3">
            <mxGeometry relative="1" as="geometry">
              <mxPoint x="1283" y="1143" as="sourcePoint" />
              <mxPoint x="1210" y="1103" as="targetPoint" />
            </mxGeometry>
          </mxCell>
        </object>
        <mxCell id="TSjxLKtJQKfFz80jZX6N-22" value="" style="group" vertex="1" connectable="0" parent="1">
          <mxGeometry x="1583" y="1114.5" width="78" height="101" as="geometry" />
        </mxCell>
        <mxCell id="TSjxLKtJQKfFz80jZX6N-23" value="" style="group;aspect=fixed;" vertex="1" connectable="0" parent="TSjxLKtJQKfFz80jZX6N-22">
          <mxGeometry x="0.7549999999999955" width="75.49000000000001" height="75" as="geometry" />
        </mxCell>
        <mxCell id="TSjxLKtJQKfFz80jZX6N-24" value="" style="whiteSpace=wrap;html=1;aspect=fixed;fillColor=#001135;strokeColor=none;connectable=1;allowArrows=1;" vertex="1" parent="TSjxLKtJQKfFz80jZX6N-23">
          <mxGeometry x="0.24500000000000455" width="75" height="75" as="geometry" />
        </mxCell>
        <mxCell id="TSjxLKtJQKfFz80jZX6N-25" value="" style="endArrow=none;html=1;rounded=0;entryX=0.907;entryY=0.793;entryDx=0;entryDy=0;entryPerimeter=0;exitX=0.08;exitY=0.793;exitDx=0;exitDy=0;exitPerimeter=0;strokeColor=#FFFFFF;strokeWidth=2;" edge="1" parent="TSjxLKtJQKfFz80jZX6N-23">
          <mxGeometry width="50" height="50" relative="1" as="geometry">
            <mxPoint x="6.490000000000009" y="60.23500000000013" as="sourcePoint" />
            <mxPoint x="68.5150000000001" y="60.23500000000013" as="targetPoint" />
          </mxGeometry>
        </mxCell>
        <mxCell id="TSjxLKtJQKfFz80jZX6N-26" value="" style="rounded=1;whiteSpace=wrap;html=1;arcSize=14;fillColor=none;strokeColor=#FFFFFF;strokeWidth=2;" vertex="1" parent="TSjxLKtJQKfFz80jZX6N-23">
          <mxGeometry x="12.245000000000005" y="15.760000000000048" width="51" height="38.46" as="geometry" />
        </mxCell>
        <mxCell id="TSjxLKtJQKfFz80jZX6N-27" value="" style="ellipse;whiteSpace=wrap;html=1;aspect=fixed;strokeColor=none;" vertex="1" parent="TSjxLKtJQKfFz80jZX6N-23">
          <mxGeometry x="36.245000000000005" y="21.220000000000027" width="3" height="3" as="geometry" />
        </mxCell>
        <mxCell id="TSjxLKtJQKfFz80jZX6N-28" value="client4-dc1" style="text;html=1;align=center;verticalAlign=middle;resizable=0;points=[];autosize=1;strokeColor=none;fillColor=none;fontFamily=Google Sans;fontSource=https%3A%2F%2Ffonts.googleapis.com%2Fcss%3Ffamily%3DGoogle%2BSans;fontColor=#FFFFFF;fontStyle=1" vertex="1" parent="TSjxLKtJQKfFz80jZX6N-22">
          <mxGeometry y="75" width="78" height="26" as="geometry" />
        </mxCell>
        <mxCell id="TSjxLKtJQKfFz80jZX6N-29" value="" style="group" vertex="1" connectable="0" parent="1">
          <mxGeometry x="1211" y="1114.5" width="77" height="101" as="geometry" />
        </mxCell>
        <mxCell id="TSjxLKtJQKfFz80jZX6N-30" value="" style="group;aspect=fixed;" vertex="1" connectable="0" parent="TSjxLKtJQKfFz80jZX6N-29">
          <mxGeometry x="0.7549999999999955" width="75.49000000000001" height="75" as="geometry" />
        </mxCell>
        <mxCell id="TSjxLKtJQKfFz80jZX6N-31" value="" style="whiteSpace=wrap;html=1;aspect=fixed;fillColor=#001135;strokeColor=none;connectable=1;allowArrows=1;" vertex="1" parent="TSjxLKtJQKfFz80jZX6N-30">
          <mxGeometry x="0.24500000000000455" width="75" height="75" as="geometry" />
        </mxCell>
        <mxCell id="TSjxLKtJQKfFz80jZX6N-32" value="" style="endArrow=none;html=1;rounded=0;entryX=0.907;entryY=0.793;entryDx=0;entryDy=0;entryPerimeter=0;exitX=0.08;exitY=0.793;exitDx=0;exitDy=0;exitPerimeter=0;strokeColor=#FFFFFF;strokeWidth=2;" edge="1" parent="TSjxLKtJQKfFz80jZX6N-30">
          <mxGeometry width="50" height="50" relative="1" as="geometry">
            <mxPoint x="6.490000000000009" y="60.23500000000013" as="sourcePoint" />
            <mxPoint x="68.5150000000001" y="60.23500000000013" as="targetPoint" />
          </mxGeometry>
        </mxCell>
        <mxCell id="TSjxLKtJQKfFz80jZX6N-33" value="" style="rounded=1;whiteSpace=wrap;html=1;arcSize=14;fillColor=none;strokeColor=#FFFFFF;strokeWidth=2;" vertex="1" parent="TSjxLKtJQKfFz80jZX6N-30">
          <mxGeometry x="12.245000000000005" y="15.760000000000048" width="51" height="38.46" as="geometry" />
        </mxCell>
        <mxCell id="TSjxLKtJQKfFz80jZX6N-34" value="" style="ellipse;whiteSpace=wrap;html=1;aspect=fixed;strokeColor=none;" vertex="1" parent="TSjxLKtJQKfFz80jZX6N-30">
          <mxGeometry x="36.245000000000005" y="21.220000000000027" width="3" height="3" as="geometry" />
        </mxCell>
        <mxCell id="TSjxLKtJQKfFz80jZX6N-35" value="client1-dc1" style="text;html=1;align=center;verticalAlign=middle;resizable=0;points=[];autosize=1;strokeColor=none;fillColor=none;fontFamily=Google Sans;fontSource=https%3A%2F%2Ffonts.googleapis.com%2Fcss%3Ffamily%3DGoogle%2BSans;fontColor=#FFFFFF;fontStyle=1" vertex="1" parent="TSjxLKtJQKfFz80jZX6N-29">
          <mxGeometry x="1" y="75" width="76" height="26" as="geometry" />
        </mxCell>
        <object label="" src_label="e1-6" trgt_label="e1-31" source="spine1-dc1" target="leaf4-dc1" id="TSjxLKtJQKfFz80jZX6N-36">
          <mxCell style="endArrow=none;jumpStyle=gap;fontFamily=Google Sans;fontSource=https%3A%2F%2Ffonts.googleapis.com%2Fcss%3Ffamily%3DGoogle%2BSans;strokeColor=#FF8000;entryX=0.5;entryY=1;entryDx=0;entryDy=0;exitX=0.5;exitY=0;exitDx=0;exitDy=0;" edge="1" parent="1" source="TSjxLKtJQKfFz80jZX6N-31" target="TSjxLKtJQKfFz80jZX6N-11">
            <mxGeometry relative="1" as="geometry">
              <mxPoint x="1165" y="1131" as="sourcePoint" />
              <mxPoint x="1170" y="1060" as="targetPoint" />
            </mxGeometry>
          </mxCell>
        </object>
        <object label="" src_label="e1-6" trgt_label="e1-31" source="spine1-dc1" target="leaf4-dc1" id="TSjxLKtJQKfFz80jZX6N-37">
          <mxCell style="endArrow=none;jumpStyle=gap;fontFamily=Google Sans;fontSource=https%3A%2F%2Ffonts.googleapis.com%2Fcss%3Ffamily%3DGoogle%2BSans;strokeColor=#FF8000;entryX=0.5;entryY=1;entryDx=0;entryDy=0;exitX=0.5;exitY=0;exitDx=0;exitDy=0;" edge="1" parent="1" source="TSjxLKtJQKfFz80jZX6N-24" target="TSjxLKtJQKfFz80jZX6N-3">
            <mxGeometry relative="1" as="geometry">
              <mxPoint x="1165" y="1131" as="sourcePoint" />
              <mxPoint x="1170" y="1060" as="targetPoint" />
            </mxGeometry>
          </mxCell>
        </object>
        <mxCell id="TSjxLKtJQKfFz80jZX6N-43" value="" style="group" vertex="1" connectable="0" parent="1">
          <mxGeometry x="1208.0049999999999" y="533" width="76.245" height="101" as="geometry" />
        </mxCell>
        <mxCell id="TSjxLKtJQKfFz80jZX6N-44" value="" style="group;aspect=fixed;" vertex="1" connectable="0" parent="TSjxLKtJQKfFz80jZX6N-43">
          <mxGeometry width="75.49000000000001" height="75" as="geometry" />
        </mxCell>
        <mxCell id="TSjxLKtJQKfFz80jZX6N-45" value="" style="whiteSpace=wrap;html=1;aspect=fixed;fillColor=#001135;strokeColor=none;connectable=1;allowArrows=1;" vertex="1" parent="TSjxLKtJQKfFz80jZX6N-44">
          <mxGeometry x="0.24500000000000455" width="75" height="75" as="geometry" />
        </mxCell>
        <mxCell id="TSjxLKtJQKfFz80jZX6N-46" value="" style="endArrow=none;html=1;rounded=0;entryX=0.907;entryY=0.793;entryDx=0;entryDy=0;entryPerimeter=0;exitX=0.08;exitY=0.793;exitDx=0;exitDy=0;exitPerimeter=0;strokeColor=#FFFFFF;strokeWidth=2;" edge="1" parent="TSjxLKtJQKfFz80jZX6N-44">
          <mxGeometry width="50" height="50" relative="1" as="geometry">
            <mxPoint x="6.490000000000009" y="60.23500000000013" as="sourcePoint" />
            <mxPoint x="68.5150000000001" y="60.23500000000013" as="targetPoint" />
          </mxGeometry>
        </mxCell>
        <mxCell id="TSjxLKtJQKfFz80jZX6N-47" value="" style="rounded=1;whiteSpace=wrap;html=1;arcSize=14;fillColor=none;strokeColor=#FFFFFF;strokeWidth=2;" vertex="1" parent="TSjxLKtJQKfFz80jZX6N-44">
          <mxGeometry x="12.245000000000005" y="15.760000000000048" width="51" height="38.46" as="geometry" />
        </mxCell>
        <mxCell id="TSjxLKtJQKfFz80jZX6N-48" value="" style="ellipse;whiteSpace=wrap;html=1;aspect=fixed;strokeColor=none;" vertex="1" parent="TSjxLKtJQKfFz80jZX6N-44">
          <mxGeometry x="36.245000000000005" y="21.220000000000027" width="3" height="3" as="geometry" />
        </mxCell>
        <mxCell id="TSjxLKtJQKfFz80jZX6N-49" value="client6" style="text;html=1;align=center;verticalAlign=middle;resizable=0;points=[];autosize=1;strokeColor=none;fillColor=none;fontFamily=Google Sans;fontSource=https%3A%2F%2Ffonts.googleapis.com%2Fcss%3Ffamily%3DGoogle%2BSans;fontColor=#FFFFFF;fontStyle=1" vertex="1" parent="TSjxLKtJQKfFz80jZX6N-43">
          <mxGeometry x="11.245000000000005" y="75" width="54" height="26" as="geometry" />
        </mxCell>
        <object label="" src_label="e1-31" trgt_label="eth3" source="spine1-dc1" target="dcgw1-dc1" id="TSjxLKtJQKfFz80jZX6N-50">
          <mxCell style="endArrow=none;jumpStyle=gap;entryY=1;exitY=0;entryX=0.5;exitX=0.5;entryDx=0;entryDy=0;exitDx=0;exitDy=0;fontFamily=Google Sans;fontSource=https%3A%2F%2Ffonts.googleapis.com%2Fcss%3Ffamily%3DGoogle%2BSans;strokeColor=#98A2AE;" edge="1" parent="1" source="XFLzxQZfM_v2sXhXUsD--205" target="XFLzxQZfM_v2sXhXUsD--251">
            <mxGeometry relative="1" as="geometry">
              <mxPoint x="1885" y="780" as="sourcePoint" />
              <mxPoint x="1842" y="673" as="targetPoint" />
            </mxGeometry>
          </mxCell>
        </object>
        <mxCell id="TSjxLKtJQKfFz80jZX6N-51" value="" style="group" vertex="1" connectable="0" parent="1">
          <mxGeometry x="2031.9999999999998" y="1114.5" width="78" height="101" as="geometry" />
        </mxCell>
        <mxCell id="TSjxLKtJQKfFz80jZX6N-52" value="" style="group;aspect=fixed;" vertex="1" connectable="0" parent="TSjxLKtJQKfFz80jZX6N-51">
          <mxGeometry x="0.7549999999999955" width="75.49000000000001" height="75" as="geometry" />
        </mxCell>
        <mxCell id="TSjxLKtJQKfFz80jZX6N-53" value="" style="whiteSpace=wrap;html=1;aspect=fixed;fillColor=#001135;strokeColor=none;connectable=1;allowArrows=1;" vertex="1" parent="TSjxLKtJQKfFz80jZX6N-52">
          <mxGeometry x="0.24500000000000455" width="75" height="75" as="geometry" />
        </mxCell>
        <mxCell id="TSjxLKtJQKfFz80jZX6N-54" value="" style="endArrow=none;html=1;rounded=0;entryX=0.907;entryY=0.793;entryDx=0;entryDy=0;entryPerimeter=0;exitX=0.08;exitY=0.793;exitDx=0;exitDy=0;exitPerimeter=0;strokeColor=#FFFFFF;strokeWidth=2;" edge="1" parent="TSjxLKtJQKfFz80jZX6N-52">
          <mxGeometry width="50" height="50" relative="1" as="geometry">
            <mxPoint x="6.490000000000009" y="60.23500000000013" as="sourcePoint" />
            <mxPoint x="68.5150000000001" y="60.23500000000013" as="targetPoint" />
          </mxGeometry>
        </mxCell>
        <mxCell id="TSjxLKtJQKfFz80jZX6N-55" value="" style="rounded=1;whiteSpace=wrap;html=1;arcSize=14;fillColor=none;strokeColor=#FFFFFF;strokeWidth=2;" vertex="1" parent="TSjxLKtJQKfFz80jZX6N-52">
          <mxGeometry x="12.245000000000005" y="15.760000000000048" width="51" height="38.46" as="geometry" />
        </mxCell>
        <mxCell id="TSjxLKtJQKfFz80jZX6N-56" value="" style="ellipse;whiteSpace=wrap;html=1;aspect=fixed;strokeColor=none;" vertex="1" parent="TSjxLKtJQKfFz80jZX6N-52">
          <mxGeometry x="36.245000000000005" y="21.220000000000027" width="3" height="3" as="geometry" />
        </mxCell>
        <mxCell id="TSjxLKtJQKfFz80jZX6N-57" value="client8-dc2" style="text;html=1;align=center;verticalAlign=middle;resizable=0;points=[];autosize=1;strokeColor=none;fillColor=none;fontFamily=Google Sans;fontSource=https%3A%2F%2Ffonts.googleapis.com%2Fcss%3Ffamily%3DGoogle%2BSans;fontColor=#FFFFFF;fontStyle=1" vertex="1" parent="TSjxLKtJQKfFz80jZX6N-51">
          <mxGeometry x="-1" y="75" width="79" height="26" as="geometry" />
        </mxCell>
        <object label="" src_label="eth1" trgt_label="e1-1" source="client1-dc1" target="leaf1-dc1" id="TSjxLKtJQKfFz80jZX6N-58">
          <mxCell style="endArrow=none;jumpStyle=gap;entryY=1;exitY=0;entryX=0.5;exitX=0.5;exitDx=0;exitDy=0;entryDx=0;entryDy=0;fontFamily=Google Sans;fontSource=https%3A%2F%2Ffonts.googleapis.com%2Fcss%3Ffamily%3DGoogle%2BSans;strokeColor=#FF8000;" edge="1" parent="1" source="TSjxLKtJQKfFz80jZX6N-53" target="XFLzxQZfM_v2sXhXUsD--181">
            <mxGeometry relative="1" as="geometry">
              <mxPoint x="2212" y="1117" as="sourcePoint" />
              <mxPoint x="2212" y="1052" as="targetPoint" />
            </mxGeometry>
          </mxCell>
        </object>
        <mxCell id="TSjxLKtJQKfFz80jZX6N-59" value="" style="group" vertex="1" connectable="0" parent="1">
          <mxGeometry x="1666" y="1114.5" width="78" height="101" as="geometry" />
        </mxCell>
        <mxCell id="TSjxLKtJQKfFz80jZX6N-60" value="" style="group;aspect=fixed;" vertex="1" connectable="0" parent="TSjxLKtJQKfFz80jZX6N-59">
          <mxGeometry x="0.7549999999999955" width="75.49000000000001" height="75" as="geometry" />
        </mxCell>
        <mxCell id="TSjxLKtJQKfFz80jZX6N-61" value="" style="whiteSpace=wrap;html=1;aspect=fixed;fillColor=#001135;strokeColor=none;connectable=1;allowArrows=1;" vertex="1" parent="TSjxLKtJQKfFz80jZX6N-60">
          <mxGeometry x="0.24500000000000455" width="75" height="75" as="geometry" />
        </mxCell>
        <mxCell id="TSjxLKtJQKfFz80jZX6N-62" value="" style="endArrow=none;html=1;rounded=0;entryX=0.907;entryY=0.793;entryDx=0;entryDy=0;entryPerimeter=0;exitX=0.08;exitY=0.793;exitDx=0;exitDy=0;exitPerimeter=0;strokeColor=#FFFFFF;strokeWidth=2;" edge="1" parent="TSjxLKtJQKfFz80jZX6N-60">
          <mxGeometry width="50" height="50" relative="1" as="geometry">
            <mxPoint x="6.490000000000009" y="60.23500000000013" as="sourcePoint" />
            <mxPoint x="68.5150000000001" y="60.23500000000013" as="targetPoint" />
          </mxGeometry>
        </mxCell>
        <mxCell id="TSjxLKtJQKfFz80jZX6N-63" value="" style="rounded=1;whiteSpace=wrap;html=1;arcSize=14;fillColor=none;strokeColor=#FFFFFF;strokeWidth=2;" vertex="1" parent="TSjxLKtJQKfFz80jZX6N-60">
          <mxGeometry x="12.245000000000005" y="15.760000000000048" width="51" height="38.46" as="geometry" />
        </mxCell>
        <mxCell id="TSjxLKtJQKfFz80jZX6N-64" value="" style="ellipse;whiteSpace=wrap;html=1;aspect=fixed;strokeColor=none;" vertex="1" parent="TSjxLKtJQKfFz80jZX6N-60">
          <mxGeometry x="36.245000000000005" y="21.220000000000027" width="3" height="3" as="geometry" />
        </mxCell>
        <mxCell id="TSjxLKtJQKfFz80jZX6N-65" value="client5-dc1" style="text;html=1;align=center;verticalAlign=middle;resizable=0;points=[];autosize=1;strokeColor=none;fillColor=none;fontFamily=Google Sans;fontSource=https%3A%2F%2Ffonts.googleapis.com%2Fcss%3Ffamily%3DGoogle%2BSans;fontColor=#FFFFFF;fontStyle=1" vertex="1" parent="TSjxLKtJQKfFz80jZX6N-59">
          <mxGeometry y="75" width="78" height="26" as="geometry" />
        </mxCell>
        <object label="" src_label="e1-6" trgt_label="e1-31" source="spine1-dc1" target="leaf4-dc1" id="TSjxLKtJQKfFz80jZX6N-66">
          <mxCell style="endArrow=none;jumpStyle=gap;fontFamily=Google Sans;fontSource=https%3A%2F%2Ffonts.googleapis.com%2Fcss%3Ffamily%3DGoogle%2BSans;strokeColor=#FF0000;entryX=0.5;entryY=1;entryDx=0;entryDy=0;exitX=0.5;exitY=0;exitDx=0;exitDy=0;" edge="1" parent="1" source="TSjxLKtJQKfFz80jZX6N-61" target="TSjxLKtJQKfFz80jZX6N-3">
            <mxGeometry relative="1" as="geometry">
              <mxPoint x="1624" y="1117" as="sourcePoint" />
              <mxPoint x="1662" y="1052" as="targetPoint" />
            </mxGeometry>
          </mxCell>
        </object>
        <mxCell id="XFLzxQZfM_v2sXhXUsD--125" value="" style="group;fontStyle=1" parent="1" vertex="1" connectable="0">
          <mxGeometry x="1324" y="533" width="101" height="76" as="geometry" />
        </mxCell>
        <mxCell id="XFLzxQZfM_v2sXhXUsD--116" value="" style="group;fontStyle=1" parent="XFLzxQZfM_v2sXhXUsD--125" vertex="1" connectable="0">
          <mxGeometry x="26" y="0.4999999999999716" width="75" height="75.00000000000006" as="geometry" />
        </mxCell>
        <mxCell id="XFLzxQZfM_v2sXhXUsD--105" value="" style="whiteSpace=wrap;html=1;aspect=fixed;fillColor=#124191;strokeColor=none;connectable=1;allowArrows=1;fontStyle=1" parent="XFLzxQZfM_v2sXhXUsD--116" vertex="1">
          <mxGeometry width="75" height="75" as="geometry" />
        </mxCell>
        <mxCell id="XFLzxQZfM_v2sXhXUsD--111" value="" style="endArrow=open;html=1;rounded=0;endFill=0;startSize=6;endSize=6;strokeColor=#FFFFFF;strokeWidth=2;entryX=0.56;entryY=0.441;entryDx=0;entryDy=0;entryPerimeter=0;exitX=0.84;exitY=0.161;exitDx=0;exitDy=0;exitPerimeter=0;fontStyle=1" parent="XFLzxQZfM_v2sXhXUsD--116" source="XFLzxQZfM_v2sXhXUsD--105" target="XFLzxQZfM_v2sXhXUsD--105" edge="1">
          <mxGeometry width="50" height="50" relative="1" as="geometry">
            <mxPoint x="63" y="12.069999999999993" as="sourcePoint" />
            <mxPoint x="43" y="32.06999999999999" as="targetPoint" />
          </mxGeometry>
        </mxCell>
        <mxCell id="XFLzxQZfM_v2sXhXUsD--113" value="" style="endArrow=open;html=1;rounded=0;endFill=0;startSize=6;endSize=6;strokeColor=#FFFFFF;strokeWidth=2;entryX=0.44;entryY=0.561;entryDx=0;entryDy=0;entryPerimeter=0;exitX=0.16;exitY=0.841;exitDx=0;exitDy=0;exitPerimeter=0;fontStyle=1" parent="XFLzxQZfM_v2sXhXUsD--116" edge="1">
          <mxGeometry width="50" height="50" relative="1" as="geometry">
            <mxPoint x="11.999999999999943" y="63.07500000000033" as="sourcePoint" />
            <mxPoint x="33" y="42.0750000000001" as="targetPoint" />
          </mxGeometry>
        </mxCell>
        <mxCell id="XFLzxQZfM_v2sXhXUsD--114" value="" style="endArrow=open;html=1;rounded=0;endFill=0;startSize=6;endSize=6;strokeColor=#FFFFFF;strokeWidth=2;entryX=0.173;entryY=0.174;entryDx=0;entryDy=0;entryPerimeter=0;exitX=0.44;exitY=0.441;exitDx=0;exitDy=0;exitPerimeter=0;fontStyle=1" parent="XFLzxQZfM_v2sXhXUsD--116" source="XFLzxQZfM_v2sXhXUsD--105" target="XFLzxQZfM_v2sXhXUsD--105" edge="1">
          <mxGeometry width="50" height="50" relative="1" as="geometry">
            <mxPoint x="65" y="14.069999999999993" as="sourcePoint" />
            <mxPoint x="44" y="35.06999999999999" as="targetPoint" />
          </mxGeometry>
        </mxCell>
        <mxCell id="XFLzxQZfM_v2sXhXUsD--115" value="" style="endArrow=open;html=1;rounded=0;endFill=0;startSize=6;endSize=6;strokeColor=#FFFFFF;strokeWidth=2;entryX=0.827;entryY=0.828;entryDx=0;entryDy=0;entryPerimeter=0;fontStyle=1" parent="XFLzxQZfM_v2sXhXUsD--116" target="XFLzxQZfM_v2sXhXUsD--105" edge="1">
          <mxGeometry width="50" height="50" relative="1" as="geometry">
            <mxPoint x="42" y="42.06999999999999" as="sourcePoint" />
            <mxPoint x="15" y="15.069999999999993" as="targetPoint" />
          </mxGeometry>
        </mxCell>
        <mxCell id="XFLzxQZfM_v2sXhXUsD--123" value="dc1-pe1" style="text;html=1;align=center;verticalAlign=middle;resizable=0;points=[];autosize=1;strokeColor=none;fillColor=none;fontFamily=Google Sans;fontSource=https%3A%2F%2Ffonts.googleapis.com%2Fcss%3Ffamily%3DGoogle%2BSans;fontColor=#FFFFFF;rotation=-90;fontStyle=1" parent="XFLzxQZfM_v2sXhXUsD--125" vertex="1">
          <mxGeometry x="-17" y="25" width="61" height="26" as="geometry" />
        </mxCell>
        <mxCell id="0JjcYLoBJ-03McrGwFQi-1" value="" style="group" vertex="1" connectable="0" parent="1">
          <mxGeometry x="1752" y="393" width="75" height="101.00000000000006" as="geometry" />
        </mxCell>
        <mxCell id="XFLzxQZfM_v2sXhXUsD--137" value="" style="group" parent="0JjcYLoBJ-03McrGwFQi-1" vertex="1" connectable="0">
          <mxGeometry y="26" width="75" height="75.00000000000006" as="geometry" />
        </mxCell>
        <mxCell id="XFLzxQZfM_v2sXhXUsD--138" value="" style="whiteSpace=wrap;html=1;aspect=fixed;fillColor=#edf3f5;strokeColor=none;connectable=1;allowArrows=1;" parent="XFLzxQZfM_v2sXhXUsD--137" vertex="1">
          <mxGeometry width="75" height="75" as="geometry" />
        </mxCell>
        <mxCell id="XFLzxQZfM_v2sXhXUsD--139" value="" style="endArrow=open;html=1;rounded=0;endFill=0;startSize=6;endSize=6;strokeColor=#4D5766;strokeWidth=2;entryX=0.56;entryY=0.441;entryDx=0;entryDy=0;entryPerimeter=0;exitX=0.84;exitY=0.161;exitDx=0;exitDy=0;exitPerimeter=0;" parent="XFLzxQZfM_v2sXhXUsD--137" source="XFLzxQZfM_v2sXhXUsD--138" target="XFLzxQZfM_v2sXhXUsD--138" edge="1">
          <mxGeometry width="50" height="50" relative="1" as="geometry">
            <mxPoint x="63" y="12.069999999999993" as="sourcePoint" />
            <mxPoint x="43" y="32.06999999999999" as="targetPoint" />
          </mxGeometry>
        </mxCell>
        <mxCell id="XFLzxQZfM_v2sXhXUsD--140" value="" style="endArrow=open;html=1;rounded=0;endFill=0;startSize=6;endSize=6;strokeColor=#4D5766;strokeWidth=2;entryX=0.44;entryY=0.561;entryDx=0;entryDy=0;entryPerimeter=0;exitX=0.16;exitY=0.841;exitDx=0;exitDy=0;exitPerimeter=0;" parent="XFLzxQZfM_v2sXhXUsD--137" edge="1">
          <mxGeometry width="50" height="50" relative="1" as="geometry">
            <mxPoint x="11.999999999999943" y="63.07500000000033" as="sourcePoint" />
            <mxPoint x="33" y="42.0750000000001" as="targetPoint" />
          </mxGeometry>
        </mxCell>
        <mxCell id="XFLzxQZfM_v2sXhXUsD--141" value="" style="endArrow=open;html=1;rounded=0;endFill=0;startSize=6;endSize=6;strokeColor=#4D5766;strokeWidth=2;entryX=0.173;entryY=0.174;entryDx=0;entryDy=0;entryPerimeter=0;exitX=0.44;exitY=0.441;exitDx=0;exitDy=0;exitPerimeter=0;" parent="XFLzxQZfM_v2sXhXUsD--137" source="XFLzxQZfM_v2sXhXUsD--138" target="XFLzxQZfM_v2sXhXUsD--138" edge="1">
          <mxGeometry width="50" height="50" relative="1" as="geometry">
            <mxPoint x="65" y="14.069999999999993" as="sourcePoint" />
            <mxPoint x="44" y="35.06999999999999" as="targetPoint" />
          </mxGeometry>
        </mxCell>
        <mxCell id="XFLzxQZfM_v2sXhXUsD--142" value="" style="endArrow=open;html=1;rounded=0;endFill=0;startSize=6;endSize=6;strokeColor=#4D5766;strokeWidth=2;entryX=0.827;entryY=0.828;entryDx=0;entryDy=0;entryPerimeter=0;" parent="XFLzxQZfM_v2sXhXUsD--137" target="XFLzxQZfM_v2sXhXUsD--138" edge="1">
          <mxGeometry width="50" height="50" relative="1" as="geometry">
            <mxPoint x="42" y="42.06999999999999" as="sourcePoint" />
            <mxPoint x="15" y="15.069999999999993" as="targetPoint" />
          </mxGeometry>
        </mxCell>
        <mxCell id="XFLzxQZfM_v2sXhXUsD--143" value="Provider" style="text;html=1;align=center;verticalAlign=middle;resizable=0;points=[];autosize=1;strokeColor=none;fillColor=none;fontFamily=Google Sans;fontSource=https%3A%2F%2Ffonts.googleapis.com%2Fcss%3Ffamily%3DGoogle%2BSans;fontColor=#FFFFFF;rotation=0;fontStyle=1" parent="0JjcYLoBJ-03McrGwFQi-1" vertex="1">
          <mxGeometry x="5.5" width="63" height="26" as="geometry" />
        </mxCell>
      </root>
    </mxGraphModel>
  </diagram>
  <diagram name="VRF composition" id="9Y49sK9ZjhoreLjhPG0a">
    <mxGraphModel dx="1036" dy="772" grid="1" gridSize="2" guides="1" tooltips="1" connect="1" arrows="1" fold="1" page="1" pageScale="1" pageWidth="3300" pageHeight="4681" background="#4D5766" math="0" shadow="0">
      <root>
        <mxCell id="17fbx9JNhlAnguyRdzwW-0" />
        <mxCell id="17fbx9JNhlAnguyRdzwW-1" parent="17fbx9JNhlAnguyRdzwW-0" />
        <mxCell id="ywT9E99J_NDp3-aMBiTF-2" value="DC2" style="points=[[0,0],[0.25,0],[0.5,0],[0.75,0],[1,0],[1,0.25],[1,0.5],[1,0.75],[1,1],[0.75,1],[0.5,1],[0.25,1],[0,1],[0,0.75],[0,0.5],[0,0.25]];outlineConnect=0;html=1;whiteSpace=wrap;fontSize=12;fontStyle=0;container=1;pointerEvents=0;collapsible=0;recursiveResize=0;shape=mxgraph.aws4.group;grIcon=mxgraph.aws4.group_aws_cloud;strokeColor=#d6b656;fillColor=#fff2cc;verticalAlign=top;align=left;spacingLeft=30;dashed=0;" parent="17fbx9JNhlAnguyRdzwW-1" vertex="1">
          <mxGeometry x="680" y="370" width="330" height="260" as="geometry" />
        </mxCell>
        <mxCell id="0o2wJ7BKKzap-cEXDgxu-11" value="" style="group;aspect=fixed;" parent="ywT9E99J_NDp3-aMBiTF-2" vertex="1" connectable="0">
          <mxGeometry x="51.99500000000012" y="120" width="75.49000000000001" height="75" as="geometry" />
        </mxCell>
        <mxCell id="0o2wJ7BKKzap-cEXDgxu-12" value="" style="whiteSpace=wrap;html=1;aspect=fixed;fillColor=#001135;strokeColor=none;connectable=1;allowArrows=1;" parent="0o2wJ7BKKzap-cEXDgxu-11" vertex="1">
          <mxGeometry x="0.24500000000000455" width="75" height="75" as="geometry" />
        </mxCell>
        <mxCell id="0o2wJ7BKKzap-cEXDgxu-13" value="" style="endArrow=none;html=1;rounded=0;entryX=0.907;entryY=0.793;entryDx=0;entryDy=0;entryPerimeter=0;exitX=0.08;exitY=0.793;exitDx=0;exitDy=0;exitPerimeter=0;strokeColor=#FFFFFF;strokeWidth=2;" parent="0o2wJ7BKKzap-cEXDgxu-11" edge="1">
          <mxGeometry width="50" height="50" relative="1" as="geometry">
            <mxPoint x="6.490000000000009" y="60.23500000000013" as="sourcePoint" />
            <mxPoint x="68.5150000000001" y="60.23500000000013" as="targetPoint" />
          </mxGeometry>
        </mxCell>
        <mxCell id="0o2wJ7BKKzap-cEXDgxu-14" value="" style="rounded=1;whiteSpace=wrap;html=1;arcSize=14;fillColor=none;strokeColor=#FFFFFF;strokeWidth=2;" parent="0o2wJ7BKKzap-cEXDgxu-11" vertex="1">
          <mxGeometry x="12.245000000000005" y="18.27" width="51" height="38.46" as="geometry" />
        </mxCell>
        <mxCell id="0o2wJ7BKKzap-cEXDgxu-15" value="" style="ellipse;whiteSpace=wrap;html=1;aspect=fixed;strokeColor=none;" parent="0o2wJ7BKKzap-cEXDgxu-11" vertex="1">
          <mxGeometry x="36.245000000000005" y="36" width="3" height="3" as="geometry" />
        </mxCell>
        <mxCell id="0o2wJ7BKKzap-cEXDgxu-16" value="" style="group;aspect=fixed;" parent="ywT9E99J_NDp3-aMBiTF-2" vertex="1" connectable="0">
          <mxGeometry x="209.7550000000001" y="120" width="75.49000000000001" height="75" as="geometry" />
        </mxCell>
        <mxCell id="0o2wJ7BKKzap-cEXDgxu-17" value="" style="whiteSpace=wrap;html=1;aspect=fixed;fillColor=#001135;strokeColor=none;connectable=1;allowArrows=1;" parent="0o2wJ7BKKzap-cEXDgxu-16" vertex="1">
          <mxGeometry x="0.24500000000000455" width="75" height="75" as="geometry" />
        </mxCell>
        <mxCell id="0o2wJ7BKKzap-cEXDgxu-18" value="" style="endArrow=none;html=1;rounded=0;entryX=0.907;entryY=0.793;entryDx=0;entryDy=0;entryPerimeter=0;exitX=0.08;exitY=0.793;exitDx=0;exitDy=0;exitPerimeter=0;strokeColor=#FFFFFF;strokeWidth=2;" parent="0o2wJ7BKKzap-cEXDgxu-16" edge="1">
          <mxGeometry width="50" height="50" relative="1" as="geometry">
            <mxPoint x="6.490000000000009" y="60.23500000000013" as="sourcePoint" />
            <mxPoint x="68.5150000000001" y="60.23500000000013" as="targetPoint" />
          </mxGeometry>
        </mxCell>
        <mxCell id="0o2wJ7BKKzap-cEXDgxu-19" value="" style="rounded=1;whiteSpace=wrap;html=1;arcSize=14;fillColor=none;strokeColor=#FFFFFF;strokeWidth=2;" parent="0o2wJ7BKKzap-cEXDgxu-16" vertex="1">
          <mxGeometry x="12.245000000000005" y="18.27" width="51" height="38.46" as="geometry" />
        </mxCell>
        <mxCell id="0o2wJ7BKKzap-cEXDgxu-20" value="" style="ellipse;whiteSpace=wrap;html=1;aspect=fixed;strokeColor=none;" parent="0o2wJ7BKKzap-cEXDgxu-16" vertex="1">
          <mxGeometry x="36.245000000000005" y="36" width="3" height="3" as="geometry" />
        </mxCell>
        <mxCell id="ywT9E99J_NDp3-aMBiTF-1" value="DC1" style="points=[[0,0],[0.25,0],[0.5,0],[0.75,0],[1,0],[1,0.25],[1,0.5],[1,0.75],[1,1],[0.75,1],[0.5,1],[0.25,1],[0,1],[0,0.75],[0,0.5],[0,0.25]];outlineConnect=0;html=1;whiteSpace=wrap;fontSize=12;fontStyle=0;container=1;pointerEvents=0;collapsible=0;recursiveResize=0;shape=mxgraph.aws4.group;grIcon=mxgraph.aws4.group_aws_cloud;strokeColor=#6c8ebf;fillColor=#dae8fc;verticalAlign=top;align=left;spacingLeft=30;dashed=0;" parent="17fbx9JNhlAnguyRdzwW-1" vertex="1">
          <mxGeometry x="260" y="370" width="330" height="260" as="geometry" />
        </mxCell>
        <mxCell id="0o2wJ7BKKzap-cEXDgxu-0" value="" style="group;aspect=fixed;" parent="ywT9E99J_NDp3-aMBiTF-1" vertex="1" connectable="0">
          <mxGeometry x="69.99500000000012" y="120" width="75.49000000000001" height="75" as="geometry" />
        </mxCell>
        <mxCell id="0o2wJ7BKKzap-cEXDgxu-1" value="" style="whiteSpace=wrap;html=1;aspect=fixed;fillColor=#001135;strokeColor=none;connectable=1;allowArrows=1;" parent="0o2wJ7BKKzap-cEXDgxu-0" vertex="1">
          <mxGeometry x="0.24500000000000455" width="75" height="75" as="geometry" />
        </mxCell>
        <mxCell id="0o2wJ7BKKzap-cEXDgxu-2" value="" style="endArrow=none;html=1;rounded=0;entryX=0.907;entryY=0.793;entryDx=0;entryDy=0;entryPerimeter=0;exitX=0.08;exitY=0.793;exitDx=0;exitDy=0;exitPerimeter=0;strokeColor=#FFFFFF;strokeWidth=2;" parent="0o2wJ7BKKzap-cEXDgxu-0" edge="1">
          <mxGeometry width="50" height="50" relative="1" as="geometry">
            <mxPoint x="6.490000000000009" y="60.23500000000013" as="sourcePoint" />
            <mxPoint x="68.5150000000001" y="60.23500000000013" as="targetPoint" />
          </mxGeometry>
        </mxCell>
        <mxCell id="0o2wJ7BKKzap-cEXDgxu-3" value="" style="rounded=1;whiteSpace=wrap;html=1;arcSize=14;fillColor=none;strokeColor=#FFFFFF;strokeWidth=2;" parent="0o2wJ7BKKzap-cEXDgxu-0" vertex="1">
          <mxGeometry x="12.245000000000005" y="15.760000000000048" width="51" height="38.46" as="geometry" />
        </mxCell>
        <mxCell id="0o2wJ7BKKzap-cEXDgxu-4" value="" style="ellipse;whiteSpace=wrap;html=1;aspect=fixed;strokeColor=none;" parent="0o2wJ7BKKzap-cEXDgxu-0" vertex="1">
          <mxGeometry x="36.245000000000005" y="21.220000000000027" width="3" height="3" as="geometry" />
        </mxCell>
        <mxCell id="0o2wJ7BKKzap-cEXDgxu-6" value="" style="group;aspect=fixed;" parent="ywT9E99J_NDp3-aMBiTF-1" vertex="1" connectable="0">
          <mxGeometry x="229.7550000000001" y="120" width="75.49000000000001" height="75" as="geometry" />
        </mxCell>
        <mxCell id="0o2wJ7BKKzap-cEXDgxu-7" value="" style="whiteSpace=wrap;html=1;aspect=fixed;fillColor=#001135;strokeColor=none;connectable=1;allowArrows=1;" parent="0o2wJ7BKKzap-cEXDgxu-6" vertex="1">
          <mxGeometry x="0.24500000000000455" width="75" height="75" as="geometry" />
        </mxCell>
        <mxCell id="0o2wJ7BKKzap-cEXDgxu-8" value="" style="endArrow=none;html=1;rounded=0;entryX=0.907;entryY=0.793;entryDx=0;entryDy=0;entryPerimeter=0;exitX=0.08;exitY=0.793;exitDx=0;exitDy=0;exitPerimeter=0;strokeColor=#FFFFFF;strokeWidth=2;" parent="0o2wJ7BKKzap-cEXDgxu-6" edge="1">
          <mxGeometry width="50" height="50" relative="1" as="geometry">
            <mxPoint x="6.490000000000009" y="60.23500000000013" as="sourcePoint" />
            <mxPoint x="68.5150000000001" y="60.23500000000013" as="targetPoint" />
          </mxGeometry>
        </mxCell>
        <mxCell id="0o2wJ7BKKzap-cEXDgxu-9" value="" style="rounded=1;whiteSpace=wrap;html=1;arcSize=14;fillColor=none;strokeColor=#FFFFFF;strokeWidth=2;" parent="0o2wJ7BKKzap-cEXDgxu-6" vertex="1">
          <mxGeometry x="12.245000000000005" y="15.760000000000048" width="51" height="38.46" as="geometry" />
        </mxCell>
        <mxCell id="0o2wJ7BKKzap-cEXDgxu-10" value="" style="ellipse;whiteSpace=wrap;html=1;aspect=fixed;strokeColor=none;" parent="0o2wJ7BKKzap-cEXDgxu-6" vertex="1">
          <mxGeometry x="36.245000000000005" y="21.220000000000027" width="3" height="3" as="geometry" />
        </mxCell>
        <object label="" src_label="eth1" trgt_label="e1-1" source="client1-dc1" target="leaf1-dc1" id="17fbx9JNhlAnguyRdzwW-63">
          <mxCell style="endArrow=none;jumpStyle=gap;entryY=1.006;exitY=0;entryX=0.13;exitX=0.5;exitDx=0;exitDy=0;entryDx=0;entryDy=0;fontFamily=Google Sans;fontSource=https%3A%2F%2Ffonts.googleapis.com%2Fcss%3Ffamily%3DGoogle%2BSans;entryPerimeter=0;" parent="17fbx9JNhlAnguyRdzwW-1" target="dQcBlTnP8QDq7_lb0F3g-0" edge="1">
            <mxGeometry relative="1" as="geometry">
              <mxPoint x="367.5" y="489.5400000000001" as="sourcePoint" />
              <mxPoint x="367.5" y="424.53999999999996" as="targetPoint" />
            </mxGeometry>
          </mxCell>
        </object>
        <mxCell id="17fbx9JNhlAnguyRdzwW-64" value="eth1" style="labelBackgroundColor=#ffffff;;fontFamily=Google Sans;fontSource=https%3A%2F%2Ffonts.googleapis.com%2Fcss%3Ffamily%3DGoogle%2BSans;" parent="17fbx9JNhlAnguyRdzwW-63" vertex="1" connectable="0">
          <mxGeometry x="-0.5" relative="1" as="geometry">
            <mxPoint as="offset" />
          </mxGeometry>
        </mxCell>
        <object label="" src_label="eth1" trgt_label="e1-1" source="client1-dc2" target="leaf1-dc2" id="17fbx9JNhlAnguyRdzwW-108">
          <mxCell style="endArrow=none;jumpStyle=gap;entryY=0.983;exitY=0;entryX=0.141;exitX=0.5;entryDx=0;entryDy=0;exitDx=0;exitDy=0;fontFamily=Google Sans;fontSource=https%3A%2F%2Ffonts.googleapis.com%2Fcss%3Ffamily%3DGoogle%2BSans;entryPerimeter=0;" parent="17fbx9JNhlAnguyRdzwW-1" source="0o2wJ7BKKzap-cEXDgxu-12" target="dQcBlTnP8QDq7_lb0F3g-3" edge="1">
            <mxGeometry relative="1" as="geometry">
              <mxPoint x="767.5" y="484.93000000000006" as="sourcePoint" />
              <mxPoint x="767.5" y="439.92999999999984" as="targetPoint" />
            </mxGeometry>
          </mxCell>
        </object>
        <mxCell id="17fbx9JNhlAnguyRdzwW-109" value="eth1" style="labelBackgroundColor=#ffffff;;fontFamily=Google Sans;fontSource=https%3A%2F%2Ffonts.googleapis.com%2Fcss%3Ffamily%3DGoogle%2BSans;" parent="17fbx9JNhlAnguyRdzwW-108" vertex="1" connectable="0">
          <mxGeometry x="-0.5" relative="1" as="geometry">
            <mxPoint as="offset" />
          </mxGeometry>
        </mxCell>
        <object label="" src_label="eth1" trgt_label="e1-1" source="client1-dc1" target="leaf1-dc1" id="17fbx9JNhlAnguyRdzwW-112">
          <mxCell style="endArrow=none;jumpStyle=gap;entryY=0.999;exitY=0;entryX=0.891;exitX=0.5;exitDx=0;exitDy=0;entryDx=0;entryDy=0;fontFamily=Google Sans;fontSource=https%3A%2F%2Ffonts.googleapis.com%2Fcss%3Ffamily%3DGoogle%2BSans;entryPerimeter=0;" parent="17fbx9JNhlAnguyRdzwW-1" source="0o2wJ7BKKzap-cEXDgxu-7" target="dQcBlTnP8QDq7_lb0F3g-0" edge="1">
            <mxGeometry relative="1" as="geometry">
              <mxPoint x="527.5" y="484.93000000000006" as="sourcePoint" />
              <mxPoint x="527.5" y="424.53999999999996" as="targetPoint" />
            </mxGeometry>
          </mxCell>
        </object>
        <mxCell id="17fbx9JNhlAnguyRdzwW-113" value="eth1" style="labelBackgroundColor=#ffffff;;fontFamily=Google Sans;fontSource=https%3A%2F%2Ffonts.googleapis.com%2Fcss%3Ffamily%3DGoogle%2BSans;" parent="17fbx9JNhlAnguyRdzwW-112" vertex="1" connectable="0">
          <mxGeometry x="-0.5" relative="1" as="geometry">
            <mxPoint as="offset" />
          </mxGeometry>
        </mxCell>
        <object label="" src_label="eth1" trgt_label="e1-1" source="client1-dc2" target="leaf1-dc2" id="17fbx9JNhlAnguyRdzwW-116">
          <mxCell style="endArrow=none;jumpStyle=gap;entryY=1;exitY=0;entryX=0.5;exitX=0.5;entryDx=0;entryDy=0;exitDx=0;exitDy=0;fontFamily=Google Sans;fontSource=https%3A%2F%2Ffonts.googleapis.com%2Fcss%3Ffamily%3DGoogle%2BSans;" parent="17fbx9JNhlAnguyRdzwW-1" source="0o2wJ7BKKzap-cEXDgxu-17" edge="1">
            <mxGeometry relative="1" as="geometry">
              <mxPoint x="927.5" y="484.93000000000006" as="sourcePoint" />
              <mxPoint x="927.5" y="439.92999999999984" as="targetPoint" />
            </mxGeometry>
          </mxCell>
        </object>
        <mxCell id="17fbx9JNhlAnguyRdzwW-117" value="eth1" style="labelBackgroundColor=#ffffff;;fontFamily=Google Sans;fontSource=https%3A%2F%2Ffonts.googleapis.com%2Fcss%3Ffamily%3DGoogle%2BSans;" parent="17fbx9JNhlAnguyRdzwW-116" vertex="1" connectable="0">
          <mxGeometry x="-0.5" relative="1" as="geometry">
            <mxPoint as="offset" />
          </mxGeometry>
        </mxCell>
        <mxCell id="dQcBlTnP8QDq7_lb0F3g-0" value="subnetA (mac-vrf)&lt;br&gt;10.0.0.0/24" style="rounded=1;whiteSpace=wrap;html=1;fontFamily=Google Sans;fontSource=https%3A%2F%2Ffonts.googleapis.com%2Fcss%3Ffamily%3DGoogle%2BSans;" parent="17fbx9JNhlAnguyRdzwW-1" vertex="1">
          <mxGeometry x="340" y="400" width="210" height="40" as="geometry" />
        </mxCell>
        <mxCell id="dQcBlTnP8QDq7_lb0F3g-1" value="client1-dc1&#xa;10.0.0.1/24" style="text;align=center;verticalAlign=middle;resizable=0;points=[];autosize=1;strokeColor=none;fillColor=none;fontFamily=Fira Code;fontSource=https%3A%2F%2Ffonts.googleapis.com%2Fcss%3Ffamily%3DFira%2BCode;shadow=0;textShadow=0;" parent="17fbx9JNhlAnguyRdzwW-1" vertex="1">
          <mxGeometry x="317.5" y="570" width="100" height="40" as="geometry" />
        </mxCell>
        <mxCell id="dQcBlTnP8QDq7_lb0F3g-2" value="client2-dc1&#xa;10.0.0.4/24" style="text;align=center;verticalAlign=middle;resizable=0;points=[];autosize=1;strokeColor=none;fillColor=none;fontFamily=Fira Code;fontSource=https%3A%2F%2Ffonts.googleapis.com%2Fcss%3Ffamily%3DFira%2BCode;shadow=0;textShadow=0;" parent="17fbx9JNhlAnguyRdzwW-1" vertex="1">
          <mxGeometry x="477.5" y="570" width="100" height="40" as="geometry" />
        </mxCell>
        <mxCell id="dQcBlTnP8QDq7_lb0F3g-3" value="subnetB (mac-vrf)&lt;br&gt;20.0.0.0/24" style="rounded=1;whiteSpace=wrap;html=1;fontFamily=Google Sans;fontSource=https%3A%2F%2Ffonts.googleapis.com%2Fcss%3Ffamily%3DGoogle%2BSans;" parent="17fbx9JNhlAnguyRdzwW-1" vertex="1">
          <mxGeometry x="740" y="400" width="210" height="40" as="geometry" />
        </mxCell>
        <mxCell id="dQcBlTnP8QDq7_lb0F3g-4" value="client3-dc2&#xa;20.0.0.1/24" style="text;align=center;verticalAlign=middle;resizable=0;points=[];autosize=1;strokeColor=none;fillColor=none;fontFamily=Fira Code;fontSource=https%3A%2F%2Ffonts.googleapis.com%2Fcss%3Ffamily%3DFira%2BCode;shadow=0;textShadow=0;" parent="17fbx9JNhlAnguyRdzwW-1" vertex="1">
          <mxGeometry x="717.5" y="570" width="100" height="40" as="geometry" />
        </mxCell>
        <mxCell id="dQcBlTnP8QDq7_lb0F3g-5" value="client4-dc1&#xa;20.0.0.4/24" style="text;align=center;verticalAlign=middle;resizable=0;points=[];autosize=1;strokeColor=none;fillColor=none;fontFamily=Fira Code;fontSource=https%3A%2F%2Ffonts.googleapis.com%2Fcss%3Ffamily%3DFira%2BCode;shadow=0;textShadow=0;" parent="17fbx9JNhlAnguyRdzwW-1" vertex="1">
          <mxGeometry x="877.5" y="570" width="100" height="40" as="geometry" />
        </mxCell>
        <object label="" src_label="eth1" trgt_label="e1-1" source="client1-dc1" target="leaf1-dc1" id="olXUVRZC3Hp8og-PnZ4X-0">
          <mxCell style="endArrow=none;jumpStyle=gap;entryY=1;exitY=0;entryX=0.25;exitX=0.75;exitDx=0;exitDy=0;entryDx=0;entryDy=0;fontFamily=Google Sans;fontSource=https%3A%2F%2Ffonts.googleapis.com%2Fcss%3Ffamily%3DGoogle%2BSans;" parent="17fbx9JNhlAnguyRdzwW-1" source="dQcBlTnP8QDq7_lb0F3g-0" target="dQcBlTnP8QDq7_lb0F3g-6" edge="1">
            <mxGeometry relative="1" as="geometry">
              <mxPoint x="538" y="495" as="sourcePoint" />
              <mxPoint x="537" y="450" as="targetPoint" />
            </mxGeometry>
          </mxCell>
        </object>
        <mxCell id="olXUVRZC3Hp8og-PnZ4X-1" value="" style="labelBackgroundColor=#ffffff;;fontFamily=Google Sans;fontSource=https%3A%2F%2Ffonts.googleapis.com%2Fcss%3Ffamily%3DGoogle%2BSans;" parent="olXUVRZC3Hp8og-PnZ4X-0" vertex="1" connectable="0">
          <mxGeometry x="-0.5" relative="1" as="geometry">
            <mxPoint as="offset" />
          </mxGeometry>
        </mxCell>
        <object label="" src_label="eth1" trgt_label="e1-1" source="client1-dc1" target="leaf1-dc1" id="olXUVRZC3Hp8og-PnZ4X-2">
          <mxCell style="endArrow=none;jumpStyle=gap;entryY=1;exitY=0;entryX=0.75;exitX=0.25;exitDx=0;exitDy=0;entryDx=0;entryDy=0;fontFamily=Google Sans;fontSource=https%3A%2F%2Ffonts.googleapis.com%2Fcss%3Ffamily%3DGoogle%2BSans;" parent="17fbx9JNhlAnguyRdzwW-1" source="dQcBlTnP8QDq7_lb0F3g-3" target="dQcBlTnP8QDq7_lb0F3g-6" edge="1">
            <mxGeometry relative="1" as="geometry">
              <mxPoint x="510" y="406" as="sourcePoint" />
              <mxPoint x="603" y="310" as="targetPoint" />
            </mxGeometry>
          </mxCell>
        </object>
        <mxCell id="olXUVRZC3Hp8og-PnZ4X-3" value="" style="labelBackgroundColor=#ffffff;;fontFamily=Google Sans;fontSource=https%3A%2F%2Ffonts.googleapis.com%2Fcss%3Ffamily%3DGoogle%2BSans;" parent="olXUVRZC3Hp8og-PnZ4X-2" vertex="1" connectable="0">
          <mxGeometry x="-0.5" relative="1" as="geometry">
            <mxPoint as="offset" />
          </mxGeometry>
        </mxCell>
        <mxCell id="olXUVRZC3Hp8og-PnZ4X-5" value="" style="group;fillColor=#D4E1F5;fillStyle=hatch;" parent="17fbx9JNhlAnguyRdzwW-1" vertex="1" connectable="0">
          <mxGeometry x="541" y="310" width="210" height="40" as="geometry" />
        </mxCell>
        <mxCell id="dQcBlTnP8QDq7_lb0F3g-6" value="IP VRF" style="rounded=1;whiteSpace=wrap;html=1;fontFamily=Google Sans;fontSource=https%3A%2F%2Ffonts.googleapis.com%2Fcss%3Ffamily%3DGoogle%2BSans;" parent="olXUVRZC3Hp8og-PnZ4X-5" vertex="1">
          <mxGeometry width="210" height="40" as="geometry" />
        </mxCell>
        <mxCell id="olXUVRZC3Hp8og-PnZ4X-4" value="" style="sketch=0;points=[[0.5,0,0],[1,0.5,0],[0.5,1,0],[0,0.5,0],[0.145,0.145,0],[0.8555,0.145,0],[0.855,0.8555,0],[0.145,0.855,0]];verticalLabelPosition=bottom;html=1;verticalAlign=top;aspect=fixed;align=center;pointerEvents=1;shape=mxgraph.cisco19.rect;prIcon=router;fillColor=#FAFAFA;strokeColor=#005073;" parent="olXUVRZC3Hp8og-PnZ4X-5" vertex="1">
          <mxGeometry x="10" y="6.25" width="27.5" height="27.5" as="geometry" />
        </mxCell>
        <mxCell id="olXUVRZC3Hp8og-PnZ4X-6" value="" style="sketch=0;points=[[0.015,0.015,0],[0.985,0.015,0],[0.985,0.985,0],[0.015,0.985,0],[0.25,0,0],[0.5,0,0],[0.75,0,0],[1,0.25,0],[1,0.5,0],[1,0.75,0],[0.75,1,0],[0.5,1,0],[0.25,1,0],[0,0.75,0],[0,0.5,0],[0,0.25,0]];verticalLabelPosition=bottom;html=1;verticalAlign=top;aspect=fixed;align=center;pointerEvents=1;shape=mxgraph.cisco19.rect;prIcon=l2_switch;fillColor=#FAFAFA;strokeColor=#005073;" parent="17fbx9JNhlAnguyRdzwW-1" vertex="1">
          <mxGeometry x="350" y="405" width="30" height="30" as="geometry" />
        </mxCell>
        <mxCell id="olXUVRZC3Hp8og-PnZ4X-7" value="" style="sketch=0;points=[[0.015,0.015,0],[0.985,0.015,0],[0.985,0.985,0],[0.015,0.985,0],[0.25,0,0],[0.5,0,0],[0.75,0,0],[1,0.25,0],[1,0.5,0],[1,0.75,0],[0.75,1,0],[0.5,1,0],[0.25,1,0],[0,0.75,0],[0,0.5,0],[0,0.25,0]];verticalLabelPosition=bottom;html=1;verticalAlign=top;aspect=fixed;align=center;pointerEvents=1;shape=mxgraph.cisco19.rect;prIcon=l2_switch;fillColor=#FAFAFA;strokeColor=#005073;" parent="17fbx9JNhlAnguyRdzwW-1" vertex="1">
          <mxGeometry x="751" y="405" width="30" height="30" as="geometry" />
        </mxCell>
      </root>
    </mxGraphModel>
  </diagram>
</mxfile>
